<svg clip-rule="evenodd" fill-rule="evenodd" height="21.2495mm" image-rendering="optimizeQuality" shape-rendering="geometricPrecision" text-rendering="geometricPrecision" viewBox="0 0 1571.59 913.18" width="36.5706mm" xmlns="http://www.w3.org/2000/svg" xmlns:xlink="http://www.w3.org/1999/xlink"><linearGradient id="a" gradientUnits="userSpaceOnUse" x1="771.59" x2="779.39" y1="194.9" y2="-76.52"><stop offset="0" stop-color="#e31e24"/><stop offset="1" stop-color="#fecc00"/></linearGradient><linearGradient id="b" gradientUnits="userSpaceOnUse" x1="766.39" x2="823.82" xlink:href="#a" y1="427.43" y2="311.08"/><linearGradient id="c" gradientUnits="userSpaceOnUse" x1="760.65" x2="783.61" xlink:href="#a" y1="366.61" y2="202.87"/><linearGradient id="d" gradientUnits="userSpaceOnUse" x1="768.3" x2="907.84" xlink:href="#a" y1="340.38" y2="-61.84"/><path d="m260.07 577.09c-.2 9.49-.53 19.06-.98 28.72-.46 9.65-1.69 18.62-3.7 26.91-.18 1-1 2.14-2.45 3.45-1.44 1.3-3.16 1.93-5.16 1.89-2.83-.06-5.05-1.65-6.65-4.77s-2.77-6.73-3.52-10.82c-.74-4.1-1.16-8.19-1.24-12.27s-.1-7.13-.06-9.12c.06-2.5.31-6.33.75-11.48.44-5.16 1.1-10.85 1.99-17.08s1.93-12.62 3.16-19.18c1.22-6.56 2.64-12.48 4.25-17.78s3.37-9.63 5.27-13.01 4.02-5.04 6.36-4.99c.5.01 1.2.15 2.11.42s2.76 1.27 5.56 2.99c-2.41 11.11-3.91 21.12-4.52 30.02s-1 17.59-1.18 26.09zm-130.23 24.71c.37-1.83.83-4.07 1.39-6.72.55-2.66 1.1-4.98 1.65-6.96.92-3.82 2.04-7.54 3.36-11.18 1.33-3.64 2.69-7.19 4.1-10.66s2.69-6.94 3.85-10.41c1.16-3.48 2.02-6.88 2.59-10.19.2-1.83.76-4.31 1.66-7.46.9-3.14 1.44-5.3 1.64-6.46.75-3.82 1.23-7.1 1.46-9.84.23-2.75.36-5.12.4-7.12.05-2.5.01-4.5-.12-6-.14-1.5-.19-2.75-.17-3.75.03-1.33.3-2.33.81-2.98.52-.66 1.7-1.46 3.55-2.42 1.18-.81 2.53-1.19 4.02-1.16 2.17.05 3.73 1.16 4.68 3.35s1.57 4.53 1.85 7.04c-.03 1.33-.23 3.12-.61 5.36s-.84 4.36-1.38 6.34c-.37 1.49-.78 3.24-1.24 5.22-.46 1.99-.79 3.65-.98 4.98-.18.83-.34 2.16-.46 3.99s-.2 3.66-.24 5.49c-.05 2.17 0 4.13.12 5.88.13 1.75.44 2.8.93 3.14 2.79 2.06 6.46 3.6 11.02 4.61s9.29 1.95 14.19 2.8c4.89.86 9.54 1.91 13.93 3.17s7.8 3.25 10.25 5.96c3.74 4.08 6.58 7.93 8.5 11.56 6.64 12.51.18 32.6-9.39 42.03-10.46 10.3-46.48 24.44-57.05 14.9-.88-.79-1.45-2.15-1.92-3.91-.46-1.76-.67-3.39-.64-4.89.03-1.16.3-2.24.82-3.23 1.89-2.46 4.25-3.86 7.09-4.22 16.63-2.08 69.14-10.65 51.88-36.51-1.88-2.81-5.1-5.11-9.22-7.2-1.48-.7-3.34-1.4-5.58-2.11-2.23-.72-4.68-1.35-7.33-1.91-2.65-.55-5.44-.99-8.35-1.3s-5.69-.49-8.36-.55c-3.16-.06-6.04.08-8.63.44s-4.73 1.02-6.42 1.99c-3.57 3.25-5.95 7.37-7.14 12.34s-2.09 10.25-2.71 15.81c-.61 5.57-1.32 11.18-2.11 16.82-.79 5.65-2.57 10.78-5.33 15.38-8.2 4.69-16.78 1.68-16.55-8.85.07-3.5.94-6.98 2.6-10.44s2.85-6.85 3.59-10.17z" fill-rule="nonzero"/><path d="m323.82 533.11c.46 2.56.7 5.24.72 8.04.03 2.81.27 5.49.72 8.04.46 2.56 1.38 4.92 2.78 7.07s3.61 3.95 6.64 5.37c1.18.53 2.45.82 3.81.85 6.21-1.15 14.42-4.31 19.63-.34 1.85 1.06 3.47 2.54 4.88 4.43 1.41 1.9 2.81 3.76 4.22 5.57 1.41 1.82 2.9 3.38 4.49 4.69 1.58 1.31 3.48 1.98 5.69 2.03 2.38.05 4.69-.58 6.92-1.89 2.41-1.31 4.74-2.96 6.99-4.95s4.55-3.94 6.88-5.84c2.34-1.91 4.75-3.51 7.24-4.82 13.71-7.19 16.18 5.69 19.13 17.49 1.41 5.64 2.06 11.01 1.95 16.1-.11 5.1-.86 10.09-2.23 14.99-1.38 4.9-2.93 9.88-4.65 14.94-.23.67-7.22 17.56-6.94 18.87.71 3.2 8.81-.2 12.65 1.13 3.22 7.55-.18 13.83-6.12 17.56-10.8 6.77-27.71 5.16-31.02-12.41-1.16-6.17 1.11-9.98 5.89-20.67 3.54-7.92 21.82-33.92 14.17-45.38-3.98-5.44-7.3-6.31-13.47-1.95-2.33 1.65-4.12 3.65-5.35 6-1.24 2.35-2.23 4.97-2.97 7.84s-1.61 5.74-2.61 8.61c-.99 2.87-2.28 5.52-3.86 7.95s-3.92 4.38-7.01 5.84c-.86.32-1.71.56-2.57.71-.85.15-1.7.21-2.55.2-3.06-.06-5.93-1.02-8.6-2.86-2.68-1.84-4.58-4.47-5.7-7.89-.48-1.54-.7-3.08-.67-4.61.05-2.38.4-4.92 1.05-7.62.65-2.71 1.01-5.33 1.06-7.88.05-2.38-.33-4.59-1.13-6.65-3.09-7.88-11.7-5.17-16.68-.86-2.68 2.32-4.86 5.08-6.54 8.27s-3.03 6.61-4.04 10.24c-1.01 3.64-2.19 7.18-3.54 10.63-1.35 3.46-3.03 6.65-5.05 9.58-2.02 2.94-4.83 5.21-8.43 6.83l-1.53-.03c-3.06-.06-5.67-1.14-7.83-3.22-2.17-2.09-3.39-4.24-3.69-6.45-.32-1.02-.47-2.05-.45-3.07s.04-2.04.06-3.06c5.28-15.11 21.4-58.79 13.01-67.55-2.96-3.09-11.76.28-24.34 18.96-2.47 3.67-4.92 7.29-7.37 10.81-.85-.02-2.03-.18-3.56-.46-1.52-.29-2.53-1.12-3.01-2.49 1.8-4.72 4.23-9.21 7.3-13.48 7.11-9.91 18.78-25.48 26.5-29.48 2.84-1.47 5.69-2.17 8.58-2.11 2.38.05 4.49.73 6.33 2.05 1.84 1.31 3.24 3.42 4.2 6.33z"/><g fill-rule="nonzero"><path d="m566.97 576.36c.17 9.17.22 18.42.15 27.76-.07 9.33-.91 18.04-2.53 26.12-.14.97-.89 2.11-2.23 3.42s-2.98 1.99-4.91 2.02c-2.74.05-4.94-1.4-6.6-4.34-1.66-2.95-2.94-6.38-3.81-10.31-.88-3.93-1.44-7.86-1.67-11.8s-.37-6.88-.4-8.81c-.04-2.42.05-6.12.28-11.11s.65-10.52 1.26-16.56c.61-6.05 1.38-12.26 2.31-18.63s2.07-12.15 3.42-17.32 2.88-9.43 4.59-12.76 3.69-5.02 5.94-5.06c.48-.01 1.17.1 2.06.33.89.22 2.72 1.11 5.48 2.67-1.89 10.82-2.96 20.53-3.2 29.15-.24 8.61-.29 17.02-.13 25.23zm-106.76-68.26c.37-.71 1.58-1.48 3.33-2.48 1.11-.83 2.39-1.25 3.84-1.28 2.09-.04 3.64.98 4.65 3.05 4.56 9.4-2.74 28.76-1.13 42.87.19 1.69.57 2.63 1.02 3 16.31 13.38 73.87 5.58 56.55 54.95-6.44 18.35-33.3 31.19-51.94 30.3-1.21-.06-2.42-.2-3.63-.42s-2.39-.52-3.52-.9-1.95-.89-2.44-1.53c-.82-.79-1.49-2.02-2-3.7-.52-1.68-.79-3.24-.81-4.69-.02-1.13.2-2.17.67-3.15 1.72-2.45 3.95-3.9 6.67-4.35 44.85-7.45 80.07-34.95 22.97-47.58-33.31-7.37-33.36 14.1-36.52 46.02-2.29 23.19-26.36 20.61-20.87 7.15 10.7-26.21 22.24-115.52 23.16-117.27z"/><path d="m616.01 474.82c1.28 3.67 3.23 6.58 5.46 8.84 16.91 17.16 44.98 7.67 40.52-19.72 3.24-5.33 9.3-10.18 9.4-3.3.82 57.41-69.09 57.18-56.61 13.15.85-.66.93.17 1.22 1.03z"/><path d="m713.85 646.44c-8.34 16.55-31.33 13.7-38.17-9.39-4.28-14.45-3.75-31.45-6.7-34.67-6.59 7.83-17.38 24.35-39.71 28.71-5.07.99-10.01 1.32-14.85.93-4.83-.4-9.18-1.74-13.03-4.02-16.47-9.68-19.24-22.61-17.68-40.04 2.35-17.06 7.77-50.88 13.36-64.46 6.71-16.29 21.62-12.23 17.42-3.35-6.88 14.56-25.41 74.65.15 81.76 46.99 13.06 58.91-63.23 63.4-99.04 1.05-1.57 1.99-2.82 2.82-3.75s1.82-1.51 2.97-1.74c8.53-1.71 11.74 11.86 11.07 17.15-7.77 60.96.76 102.73 18.94 131.9z"/><path d="m113.97 473.01c-35.7 8.21-71.64 36.55-92.43 90.68-30.03 78.22 80.71 30.67 89.64 34.17 2.43.95 3.85 2.9 4.28 5.84-1.61 6.65-5.15 12.05-10.62 16.17-5.47 4.13-11.5 7.38-18.07 9.77-26.71 9.7-66.69 9.93-82.31-18.39-3.14-5.69-4.62-12.7-4.45-21.01.86-39.96 55.79-136.08 98.64-136.41 16.84-.13 24.47 17.08 15.32 19.18z"/><path d="m1005.8 520.43c5.32 25.37-8.73 48.62-4.4 74.8.6 3.62 1.72 7.28 3.35 10.98-.88 4.89-2.83 8.78-5.86 11.66-17.09 16.32-82.94 26.12-93.07 1-13.57-33.67 60.35-54.92 83.32-52.14 11.93-7.33 11.68-46.92-6.88-44.45-6.59.88-12.6 6.76-17.61 6.76h-1.11c-1.18-.59-2-1.29-2.45-2.11-.45-.81-.67-1.81-.67-3 0-.74.07-1.48.22-2.22s.29-1.48.44-2.22c0-.15.03-.26.11-.34.07-.07.11-.18.11-.33 10.54-16.72 39.24-23.55 44.5 1.58zm-17.73 71.17c0-2.07-.27-3.99-.79-5.77-.52-1.77-1.15-3.67-2.57-5.1-9.62-9.75-44.26-1.38-54.79 20.34-6.61 13.63 19.4 14.78 27.44 13.42 16.03-2.72 30.73-10.21 30.7-22.9z"/><path d="m1105.16 633.57c0-3.4.98-7.18 2.97-11.32 9.61-20.03 14.15-67.07 2.32-75-5.26-3.53-14.98-.39-26.85 18.11-2.14 3.33-3.49 6.48-3.42 9.44.22 9.64 6.79 22.89 3.71 32.48-1.65 5.13-14.85-1.39-14.55-3.2 1.74-10.33 3.07-26.36-.49-32.7-1.3-2.31-2.34-4.54-4.01-6.21-6.33-6.35-14.01-11.7-19.5-11-29.51 3.79-14.44 48.27-12.81 64 .73 7.02-4.7 13.37-9.89 14.19-11.99 1.88-8.53-74.05-.02-88.19 5.35-8.9 15.1-15.68 25.72-15.7 10.34-.02 25.28 16.23 28.9 24.36 6.82-17.66 33.05-53.57 48.35-18.96 8.82 19.96 2.71 85.25-4.46 105.21-.73 2.07-2.1 3.3-4.1 3.67s-3.59.56-4.77.56c-2.96 0-4.88-1.1-5.78-3.32-.89-2.22-1.34-4.36-1.35-6.43z"/><path d="m1311.71 519.13c18.62 6.73 28.43 20.58 20.72 40.24-2.06 5.26-4.79 10.22-8.18 14.89s-7.34 8.97-11.85 12.9c-4.5 3.93-9.24 7.57-14.18 10.91-4.95 3.33-9.98 6.38-15.08 9.13-30.12 16.23-28.19 43.57-33.92 75.86-.86 4.82-2.16 15-3.86 24-1.32 6.95-7.85 19.37-20.59 12.12-8.55-4.86-4.73-26.13-3.39-33.51.95-5.26 2.09-10.33 3.41-15.21 1.32-4.89 2.68-10.06 4.07-15.54 1.4-5.47 4.53-16.72 5.55-24.56-8.69-1.27-25.17 8.61-32.45 3.64-3.2-2.18-2.05-9.08-1.25-12.32 14.37-15.74 50.28-13.65 54.1-45.2.73-6.04-.37-14.72-5.4-19.37-1.04-.96-1.93-1.96-2.67-2.99-.74-1.04-1.11-2.14-1.12-3.33 0-1.33.52-2.74 1.55-4.22 6.34-9.33 13.92-16.42 22.71-21.24 8.8-4.83 18.52-7.25 29.18-7.27 2.07 0 4.18.1 6.32.32 2.15.22 4.26.47 6.33.76zm12.61 37.59c7.01-10.98.86-19.6-10.37-24.06-5.18-2.06-10.58-3.09-16.21-3.07-5.77.01-11.1.91-15.98 2.69-2.96 1.48-5.35 3.34-7.2 5.56-1.84 2.22-3.32 4.67-4.42 7.33-4.58 11.06-2.78 24.17-1.59 35.74 4.04 12.06 21.76 1.49 29.18-2.14 10.63-5.19 20.32-12.21 26.6-22.05z"/><path d="m1429.15 603.15c-.88 4.89-2.83 8.78-5.86 11.66-17.12 16.35-75.47 25.11-95.31 10.29-2.96-2.36-6.25-4.45-7.12-7.53-10.83-38.84 75.06-54.94 92.67-53.89 11.3-11.1 19.54-61.49-18.28-39.58-9.57 5.54-15.4-1.82-5.87-12.29 8.72-9.59 32.55-16.47 42.23-5.17 16.02 18.69-16.07 65.76-2.47 96.52zm-46.59-29.4c-13.79 3.19-28.55 10.81-34.44 17.57-28.01 32.14 58.24 25.92 64.04.92 2.59-11.15-4.92-24.2-29.59-18.49z"/><path d="m1484.15 486.32c8.44 28.34 48.47 14.66 42.07-17.92 2.22-5.61 7.87-6.79 9.09-.25 10.2 54.62-57.18 61.42-52.5 17.38.7-.77 1.09-.06 1.34.78z"/><path d="m1571.59 648.3c-8.07 16.02-30.31 13.26-36.94-9.08-4.15-13.98-3.62-30.43-6.48-33.55-6.38 7.58-16.82 23.56-38.43 27.78-4.9.96-9.69 1.28-14.37.9s-8.88-1.68-12.61-3.89c-15.93-9.37-18.61-21.88-17.11-38.75 2.28-16.51 7.52-49.24 12.94-62.37 6.49-15.76 20.92-11.83 16.85-3.24-6.66 14.09-24.59 72.24.15 79.11 45.47 12.63 57.01-61.18 61.35-95.84 1.01-1.52 1.92-2.72 2.72-3.62.81-.9 1.76-1.47 2.87-1.68 8.26-1.65 11.37 11.48 10.71 16.6-7.51 58.99.74 99.4 18.33 127.63z"/><path d="m895.04 489.14c-34.77 8-69.77 35.6-90.01 88.32-29.25 76.18 78.6 29.87 87.3 33.27 2.36.92 3.76 2.82 4.17 5.69-1.57 6.48-5.02 11.73-10.34 15.75-5.33 4.01-11.19 7.19-17.6 9.51-26.02 9.45-64.95 9.67-80.16-17.91-3.06-5.55-4.5-12.37-4.33-20.47.83-38.91 54.34-132.52 96.06-132.84 16.39-.12 23.82 16.63 14.92 18.68z"/><path d="m1227.57 500.75c-2.59 16.88-35.41 108.11-45.59 127.15-29.43 55.1-19.57 58.01-27.41 101.17-.66 3.62-1.72 7.07-3.2 10.33-5.18 11.47-17.13 12.45-18.87.48.57-10.66 1.15-19.87 1.72-27.64 2.9-39.12 10.89-57.05 28.9-90.72 1.33-2.37 2.73-5.26 4.2-8.66 1.47-3.41 2.84-6.92 4.09-10.55s2.28-7.22 3.09-10.77c1.54-6.76 2.84-11.39-5.35-13.64-20.24-5.55-27.82-21.62-28.14-52.02 2.07.89 9.16.93 10.64 3.88 2.62 5.22 5.76 31.94 16.69 32.06 16.67.19 40.19-45.36 46.66-62.46z"/></g><path d="m771.73 0c-110.19 0-199.52 89.33-199.52 199.51 0 2.1.04 4.18.1 6.26 115.81-11.16 262.44-13.98 398.87-10.18-2.09-108.38-90.57-195.59-199.46-195.59z" fill="url(#a)"/><path d="m516.74 271.86-.04 1.22c-80.94 7.3-159.88 13.87-242.64 28.56-10.03 9.27-26.3 5.71-28.67-16.22-2.38-21.97 16.15-27.6 23.68-21.86 87.51-16.12 156.25-23.48 245.61-30.57 1.66-10.19 3.47-20.24 6.14-25.56 4.54-2.24 8.87-2.81 12.92-1.87 8.5 3.99 18.48 15.6 19.94 23.52 214.74-26.26 585.41-15.2 719.96 16.5 24.41 5.23 42.88 21.76 50.85 34.61 4.54 8.01.1 7.68-3.62 7.32-257.41-32.07-550.04-41.1-766.21-17.62-.49 8.94-1.89 16.62-4.82 23.7-2.57 1.97-8.65 3.29-12.8 2.39-10.66-3.55-16.75-13.27-20.31-24.13z" fill="url(#d)"/><path d="m595.94 290.71c84.07-15.02 367.63-11.84 363.69 8.36-4.11 21.06-137.87 22.27-267.57 43.28 351.92 2.47 214.7 20.28 45.37 17.54-4.5-.07-69.98-1.21-94.91-1.71-10.97 0-20.4-6.77-6.88-14.13 27.09-14.67 113.75-28.56 188.16-38.49-87.9 1.49-145.33.88-209.87 19.61l-18-34.46z" fill="url(#c)"/><path d="m822 399.97c-32.59.18-50.95-.7-86.09 1.16l46.29 11.68c-4.9 1.93-13.24 6.28-18.14 8.22l-54.63-13.25-9.3-8.65c49.06-16.43 88.08-19.57 135.55-22.63l-13.7 23.49z" fill="url(#b)"/><path d="m226.86 878.81c0 1.62-.85 2.42-2.55 2.42h-71.51c-1.72 0-2.6-.8-2.6-2.42 0-.41.19-.99.58-1.7l35.38-62.84c.6-1.13 1.43-1.7 2.41-1.7.94 0 1.73.58 2.34 1.7l35.38 62.84c.38.71.58 1.29.58 1.7zm-6.75-2.55-31.6-56.26-31.57 56.26zm82.48-29.38c0 9.49-3.35 17.58-10.03 24.3-6.72 6.69-14.82 10.04-24.28 10.04-9.49 0-17.58-3.35-24.31-10.04-6.69-6.72-10.03-14.81-10.03-24.3 0-9.46 3.34-17.56 10.03-24.28 6.73-6.69 14.82-10.04 24.31-10.04 9.46 0 17.55 3.35 24.28 10.04 6.69 6.72 10.03 14.82 10.03 24.28zm-4.97 0c0-8.09-2.85-15.03-8.58-20.77-5.73-5.73-12.67-8.59-20.76-8.59-8.12 0-15.06 2.85-20.8 8.59-5.73 5.73-8.59 12.67-8.59 20.77 0 8.12 2.85 15.06 8.59 20.79s12.67 8.59 20.8 8.59c8.09 0 15.03-2.85 20.76-8.59 5.73-5.73 8.58-12.67 8.58-20.79zm71.44-22.57c0 1.7-.86 2.54-2.56 2.54.31 0-2.05-1.56-6.99-4.66-4.97-3.1-10.12-4.66-15.5-4.66-8.12 0-15.06 2.85-20.8 8.59-5.73 5.73-8.58 12.67-8.58 20.77 0 8.12 2.85 15.06 8.58 20.79 5.74 5.73 12.67 8.59 20.8 8.59 5.37 0 10.53-1.57 15.5-4.66 4.94-3.13 7.27-4.66 6.94-4.66 1.7 0 2.56.85 2.56 2.54 0 .6-.28 1.18-.8 1.75-6.17 6.67-14.23 9.99-24.19 9.99-9.49 0-17.58-3.35-24.31-10.04-6.69-6.72-10.03-14.81-10.03-24.3 0-9.46 3.34-17.56 10.03-24.28 6.73-6.69 14.81-10.04 24.31-10.04 9.96 0 18.05 3.35 24.28 10.04.52.58.77 1.16.77 1.71zm59.8-9.27c0 1.67-.82 2.5-2.47 2.5h-21.45v61.23c0 1.64-.79 2.47-2.41 2.47-1.65 0-2.47-.83-2.47-2.47v-61.23h-21.43c-1.67 0-2.5-.83-2.5-2.5 0-1.65.83-2.47 2.47-2.47h47.78c1.65 0 2.47.83 2.47 2.47zm54.56 63.72c0 1.64-.83 2.47-2.47 2.47-1.68 0-2.5-.83-2.5-2.47v-6.72c-4.77 6.12-11.02 9.19-18.76 9.19-6.51 0-12.08-2.33-16.73-6.97-4.64-4.66-6.97-10.23-6.97-16.76 0-6.5 2.33-12.07 6.97-16.73 4.66-4.63 10.23-6.97 16.73-6.97 7.74 0 13.99 3.07 18.76 9.19v-6.72c0-5.13-1.84-9.54-5.51-13.22-3.68-3.68-8.09-5.51-13.24-5.51-3.35 0-6.7 1.04-10.07 3.15-3.37 2.08-5.02 3.12-4.94 3.12-1.7 0-2.53-.85-2.53-2.55 0-.6.25-1.21.77-1.75 4.25-4.64 9.85-6.94 16.79-6.94 6.51 0 12.08 2.33 16.73 6.97 4.64 4.66 6.97 10.23 6.97 16.73zm-4.97-21.26c0-5.13-1.84-9.54-5.51-13.21-3.68-3.68-8.09-5.52-13.22-5.52-5.16 0-9.57 1.83-13.25 5.52-3.67 3.67-5.51 8.09-5.51 13.21 0 5.16 1.84 9.57 5.51 13.25 3.68 3.67 8.09 5.51 13.25 5.51 5.14 0 9.54-1.84 13.22-5.51 3.67-3.68 5.51-8.1 5.51-13.25zm67.37 3.57c0 5.84-2.28 10.73-6.86 14.65-4.39 3.67-9.57 5.51-15.5 5.51h-19.91c-1.65 0-2.47-.83-2.47-2.47v-63.72c0-1.65.83-2.47 2.47-2.47h19.89c4.85 0 9.11 1.53 12.75 4.61 3.76 3.24 5.65 7.27 5.65 12.01 0 6.01-2.74 10.62-8.26 13.88 8.14 3.73 12.23 9.73 12.23 17.99zm-8.94-31.88c0-3.37-1.43-6.19-4.25-8.47-2.63-2.11-5.7-3.18-9.18-3.18h-17.4v23.34h17.4c3.48 0 6.55-1.07 9.18-3.18 2.82-2.28 4.25-5.1 4.25-8.5zm3.98 31.85c0-4.36-1.81-8.06-5.46-11.03-3.43-2.77-7.41-4.17-11.93-4.17h-17.42v30.42h17.42c4.53 0 8.51-1.38 11.93-4.11 3.65-2.97 5.46-6.67 5.46-11.11zm60.95 17.72c0 1.7-.85 2.54-2.55 2.54-.66 0-1.23-.24-1.76-.76l-31.87-31.88c-.46-.46-.69-1.07-.69-1.78 0-.69.22-1.29.69-1.76l31.87-31.85c.52-.52 1.1-.79 1.76-.79 1.7 0 2.55.85 2.55 2.52 0 .66-.28 1.26-.8 1.77l-30.09 30.1 30.09 30.09c.55.52.8 1.12.8 1.78zm-36.87.05c0 1.68-.82 2.49-2.5 2.49-1.64 0-2.47-.82-2.47-2.49v-63.83c0-1.67.83-2.49 2.47-2.49 1.68 0 2.5.82 2.5 2.49zm91.4-.05c0 1.64-.82 2.47-2.47 2.47-1.68 0-2.49-.83-2.49-2.47v-6.72c-4.78 6.12-11.03 9.19-18.76 9.19-6.51 0-12.08-2.33-16.73-6.97-4.64-4.66-6.97-10.23-6.97-16.76 0-6.5 2.33-12.07 6.97-16.73 4.66-4.63 10.23-6.97 16.73-6.97 7.74 0 13.98 3.07 18.76 9.19v-6.72c0-5.13-1.84-9.54-5.51-13.22-3.68-3.68-8.1-5.51-13.25-5.51-3.35 0-6.7 1.04-10.07 3.15-3.37 2.08-5.02 3.12-4.93 3.12-1.71 0-2.53-.85-2.53-2.55 0-.6.25-1.21.77-1.75 4.25-4.64 9.84-6.94 16.79-6.94 6.5 0 12.07 2.33 16.73 6.97 4.64 4.66 6.97 10.23 6.97 16.73v42.49zm-4.96-21.26c0-5.13-1.84-9.54-5.51-13.21-3.68-3.68-8.1-5.52-13.22-5.52-5.16 0-9.57 1.83-13.25 5.52-3.67 3.67-5.51 8.09-5.51 13.21 0 5.16 1.84 9.57 5.51 13.25 3.68 3.67 8.1 5.51 13.25 5.51 5.13 0 9.54-1.84 13.22-5.51 3.67-3.68 5.51-8.1 5.51-13.25z" fill-rule="nonzero"/><path d="m751.2 861.17c0 5.84-2.27 10.73-6.85 14.65-4.39 3.67-9.57 5.51-15.5 5.51h-19.92c-1.64 0-2.47-.82-2.47-2.47v-63.72c0-1.65.83-2.47 2.47-2.47h19.89c4.86 0 9.11 1.53 12.75 4.61 3.76 3.24 5.65 7.27 5.65 12.01 0 6.01-2.74 10.61-8.26 13.88 8.15 3.73 12.23 9.73 12.23 17.99zm-8.94-31.88c0-3.37-1.42-6.2-4.25-8.47-2.64-2.11-5.71-3.18-9.19-3.18h-17.39v23.34h17.39c3.49 0 6.55-1.07 9.19-3.18 2.82-2.27 4.25-5.11 4.25-8.5zm3.98 31.85c0-4.36-1.81-8.06-5.46-11.03-3.43-2.77-7.4-4.17-11.93-4.17h-17.42v30.42h17.42c4.53 0 8.5-1.37 11.93-4.11 3.65-2.96 5.46-6.67 5.46-11.11zm60.95 17.72c0 1.7-.85 2.55-2.55 2.55-.66 0-1.23-.24-1.75-.76l-31.87-31.87c-.46-.47-.69-1.07-.69-1.78 0-.68.22-1.29.69-1.75l31.87-31.84c.52-.52 1.1-.8 1.75-.8 1.71 0 2.55.85 2.55 2.53 0 .66-.27 1.26-.8 1.78l-30.09 30.09 30.09 30.09c.55.52.8 1.13.8 1.78zm-36.87.06c0 1.67-.82 2.49-2.49 2.49-1.65 0-2.47-.82-2.47-2.49v-63.83c0-1.68.83-2.5 2.47-2.5 1.67 0 2.49.82 2.49 2.5zm91.4 10.55c0 6.5-2.32 12.07-6.97 16.73-4.66 4.63-10.23 6.97-16.76 6.97-9.25 0-16.08-3.92-20.52-11.74-.25-.46-.35-.93-.35-1.34 0-1.62.87-2.42 2.6-2.42.64 0 1.7.91 3.21 2.69 1.97 2.3 3.75 4 5.37 5.1 2.77 1.83 6.01 2.74 9.69 2.74 5.16 0 9.57-1.83 13.25-5.51 3.67-3.67 5.51-8.1 5.51-13.25v-17.3c-4.77 6.12-11.03 9.18-18.76 9.18-6.5 0-12.08-2.33-16.73-6.96-4.64-4.66-6.97-10.24-6.97-16.73v-42.49c0-1.65.82-2.47 2.49-2.47 1.65 0 2.47.83 2.47 2.47v42.46c0 5.16 1.83 9.57 5.51 13.25 3.67 3.67 8.09 5.51 13.25 5.51 5.13 0 9.54-1.83 13.22-5.51 3.67-3.68 5.51-8.1 5.51-13.25v-42.46c0-1.65.82-2.47 2.49-2.47 1.65 0 2.47.83 2.47 2.47v74.33zm73.52-65.06c0 1.7-.86 2.55-2.56 2.55.3 0-2.05-1.56-7-4.66-4.96-3.1-10.12-4.67-15.5-4.67-8.12 0-15.06 2.85-20.79 8.59-5.74 5.73-8.58 12.67-8.58 20.76 0 8.12 2.84 15.06 8.58 20.8 5.73 5.73 12.67 8.58 20.79 8.58 5.38 0 10.53-1.56 15.5-4.66 4.94-3.13 7.28-4.66 6.94-4.66 1.7 0 2.55.85 2.55 2.55 0 .6-.28 1.18-.8 1.75-6.18 6.67-14.24 9.98-24.19 9.98-9.48 0-17.58-3.34-24.3-10.03-6.69-6.73-10.04-14.81-10.04-24.31 0-9.47 3.35-17.55 10.04-24.28 6.72-6.7 14.82-10.04 24.3-10.04 9.96 0 18.05 3.34 24.28 10.04.52.58.77 1.16.77 1.7zm66.9 54.45c0 1.65-.83 2.47-2.47 2.47-1.67 0-2.49-.82-2.49-2.47v-29.37h-42.82v29.37c0 1.65-.82 2.47-2.47 2.47-1.67 0-2.5-.82-2.5-2.47v-63.72c0-1.65.83-2.47 2.5-2.47 1.65 0 2.47.83 2.47 2.47v29.38h42.82v-29.38c0-1.65.82-2.47 2.49-2.47 1.65 0 2.47.83 2.47 2.47zm82.81-31.87c0 9.49-3.35 17.58-10.04 24.31-6.72 6.69-14.81 10.03-24.28 10.03-9.49 0-17.58-3.34-24.31-10.03-6.69-6.73-10.04-14.81-10.04-24.31 0-9.47 3.35-17.55 10.04-24.28 6.73-6.7 14.82-10.04 24.31-10.04 9.46 0 17.55 3.34 24.28 10.04 6.69 6.72 10.04 14.81 10.04 24.28zm-4.96 0c0-8.09-2.85-15.03-8.59-20.76-5.73-5.74-12.67-8.59-20.76-8.59-8.12 0-15.06 2.85-20.8 8.59-5.73 5.73-8.59 12.67-8.59 20.76 0 8.12 2.85 15.06 8.59 20.8 5.74 5.73 12.67 8.58 20.8 8.58 8.09 0 15.03-2.85 20.76-8.58 5.74-5.74 8.59-12.67 8.59-20.8zm68.05-63.72c0 .69-.73 1.79-2.19 3.35-6.01 6.47-11.44 9.71-16.35 9.71s-10.34-3.24-16.3-9.71c-1.45-1.56-2.19-2.66-2.19-3.35 0-1.65.87-2.47 2.63-2.47.46 0 2.52 1.78 6.17 5.32 3.68 3.54 6.88 5.32 9.69 5.32 2.77 0 6.01-1.78 9.68-5.32 3.7-3.54 5.76-5.32 6.25-5.32 1.73 0 2.6.82 2.6 2.47zm11.83 31.96v63.64c0 1.65-.83 2.47-2.47 2.47-1.68 0-2.5-.82-2.5-2.47v-57.14l-51.1 58.4c-.69.8-1.4 1.2-2.11 1.2-1.7 0-2.55-.85-2.55-2.55v-63.63c0-1.65.85-2.47 2.52-2.47 1.68 0 2.5.83 2.5 2.47v57.13l51.1-58.42c.71-.8 1.4-1.18 2.08-1.18 1.68 0 2.53.85 2.53 2.55zm110.9 47.62c0 .44-.11.87-.36 1.34-3.02 5.24-7.19 9.41-12.56 12.51-5.35 3.09-11.05 4.63-17.14 4.63-9.49 0-17.58-3.34-24.31-10.03-6.68-6.73-10.03-14.81-10.03-24.31 0-9.47 3.35-17.55 10.03-24.28 6.73-6.7 14.82-10.04 24.31-10.04 3.73 0 7.55.68 11.47 2.05 3.62 1.32 7.4 3.46 11.33 6.45 4.8 3.67 7.21 6.99 7.21 9.96 0 .96-.41 1.64-1.21 2.06l-52.94 30.58c5.84 8.39 13.88 12.59 24.14 12.59 8.86 0 16.15-3.26 21.86-9.76.8-1.07 1.98-2.74 3.54-4.94.61-.83 1.32-1.2 2.12-1.2 1.7 0 2.55.79 2.55 2.39zm-5.93-32.62c-5.87-8.39-13.91-12.59-24.14-12.59-8.12 0-15.06 2.85-20.8 8.59-5.74 5.73-8.58 12.67-8.58 20.79 0 4.39.9 8.55 2.74 12.51l50.77-29.3zm89.67 48.69c0 1.62-.85 2.41-2.55 2.41h-71.51c-1.72 0-2.6-.79-2.6-2.41 0-.42.19-1 .58-1.71l35.38-62.84c.6-1.13 1.43-1.7 2.41-1.7.94 0 1.73.57 2.34 1.7l35.38 62.84c.38.71.58 1.29.58 1.71zm-6.75-2.56-31.6-56.26-31.57 56.26zm73.65 2.5c0 1.65-.83 2.47-2.47 2.47-1.67 0-2.49-.82-2.49-2.47v-63.72c0-1.65.82-2.47 2.49-2.47 1.65 0 2.47.83 2.47 2.47zm-8.01-17.74c0 5.84-2.28 10.73-6.86 14.62-4.39 3.73-9.57 5.59-15.5 5.59l-19.91-.08c-1.65 0-2.47-.83-2.47-2.48v-63.63c0-1.65.83-2.47 2.5-2.47 1.64 0 2.46.83 2.46 2.47v25.84h17.42c5.92 0 11.11 1.87 15.5 5.6 4.58 3.89 6.86 8.75 6.86 14.54zm-4.97 0c0-4.37-1.81-8.04-5.46-11-3.43-2.77-7.4-4.17-11.93-4.17h-17.42v30.42h17.42c4.55 0 8.56-1.4 11.93-4.17 3.65-2.91 5.46-6.61 5.46-11.08z" fill-rule="nonzero"/><path d="m49.7 725.31h1004.53v8.36h-1004.53z"/><path d="m1303.27 725.31h234v8.36h-234z"/></svg>