<svg enable-background="new 0 0 512 512" viewBox="0 0 512 512" xmlns="http://www.w3.org/2000/svg"><g fill="#e6351e"><path d="m508.4 306.2-35.4-41.2c25.2-28.4 38.9-63.1 38.9-99 .1-93-90.1-166-195.9-166-107.5 0-195 74.5-195 166 0 2.3.1 4.6.2 6.9-71.6 28.4-121.2 89.7-121.2 160.6 0 39.7 15.2 77.8 43 108.7l-39.3 44.9c-3.9 4.4-4.8 10.7-2.4 16.1s7.8 8.8 13.7 8.8h211c1.7 0 6.9-1 8-1.1 49.5-4.6 95.3-24 129.8-55.1 36.4-32.8 57.9-76.8 57.2-124.8h76c12.8 0 19.7-15.1 11.4-24.8zm-279.4 175.1c-1.3.1-5.8.5-6.7.7h-174.2l26.6-30.5c5.3-6.1 4.9-15.2-1-20.8-28.2-26.7-43.7-61.2-43.7-97.2 0-81.3 81.2-147.5 181-147.5 99.2 0 180 66.2 180 147.5 0 76-70.8 140.3-162 147.8zm188.5-180.3c-18.1-83.4-104.7-145-206.5-145-20.8 0-40.9 2.6-60 7.3 1.8-73.7 75.1-133.3 165-133.3 91.5 0 166 61 166 136 0 32.1-14 63.2-39.6 87.6-5.8 5.5-6.2 14.5-1 20.6l23 26.8z"/><path d="m121 301c-16.5 0-30 13.5-30 30s13.5 30 30 30 30-13.5 30-30-13.5-30-30-30z"/><path d="m211 301c-16.5 0-30 13.5-30 30s13.5 30 30 30 30-13.5 30-30-13.5-30-30-30z"/><path d="m301 301c-16.5 0-30 13.5-30 30s13.5 30 30 30 30-13.5 30-30-13.5-30-30-30z"/></g></svg>