<svg xmlns="http://www.w3.org/2000/svg" version="1.1" xmlns:xlink="http://www.w3.org/1999/xlink" xmlns:svgjs="http://svgjs.com/svgjs" width="512" height="512" x="0" y="0" viewBox="0 0 512 512" style="enable-background:new 0 0 512 512" xml:space="preserve" class=""><g><g><path d="m290.765 222.449h-24.457c-5.523 0-10 4.477-10 10s4.477 10 10 10h24.457c5.523 0 10-4.477 10-10s-4.477-10-10-10z" fill="#ffffff" data-original="#000000" class=""></path><path d="m331.033 242.449h24.457c5.523 0 10-4.477 10-10s-4.477-10-10-10h-24.457c-5.523 0-10 4.477-10 10s4.477 10 10 10z" fill="#ffffff" data-original="#000000" class=""></path><path d="m420.213 242.449c5.523 0 10-4.477 10-10s-4.477-10-10-10h-24.457c-5.523 0-10 4.477-10 10s4.477 10 10 10z" fill="#ffffff" data-original="#000000" class=""></path><path d="m284.793 275.623h-27.243c-5.523 0-10 4.477-10 10s4.477 10 10 10h27.243c5.523 0 10-4.477 10-10s-4.477-10-10-10z" fill="#ffffff" data-original="#000000" class=""></path><path d="m329.639 295.623h27.244c5.523 0 10-4.477 10-10s-4.477-10-10-10h-27.244c-5.523 0-10 4.477-10 10s4.477 10 10 10z" fill="#ffffff" data-original="#000000" class=""></path><path d="m428.972 295.623c5.523 0 10-4.477 10-10s-4.477-10-10-10h-27.243c-5.523 0-10 4.477-10 10s4.477 10 10 10z" fill="#ffffff" data-original="#000000" class=""></path><path d="m277.712 328.796h-30.542c-5.523 0-10 4.477-10 10s4.477 10 10 10h30.542c5.523 0 10-4.477 10-10s-4.477-10-10-10z" fill="#ffffff" data-original="#000000" class=""></path><path d="m358.532 328.796h-30.542c-5.523 0-10 4.477-10 10s4.477 10 10 10h30.542c5.523 0 10-4.477 10-10s-4.477-10-10-10z" fill="#ffffff" data-original="#000000" class=""></path><path d="m439.352 328.796h-30.542c-5.523 0-10 4.477-10 10s4.477 10 10 10h30.542c5.523 0 10-4.477 10-10s-4.477-10-10-10z" fill="#ffffff" data-original="#000000" class=""></path><path d="m194.134 450.576h123.732c5.523 0 10-4.477 10-10s-4.477-10-10-10h-123.732c-5.523 0-10 4.477-10 10s4.477 10 10 10z" fill="#ffffff" data-original="#000000" class=""></path><path d="m511.998 389.431c-.001-.361-.022-.741-.063-1.099l-23.859-207.701c-.58-5.048-4.854-8.859-9.935-8.859h-100.737v-50.822h69.114c11.912 0 21.603-9.679 21.603-21.577v-67.446c0-11.897-9.691-21.577-21.603-21.577h-158.227c-11.912 0-21.603 9.68-21.603 21.577v67.446c0 11.897 9.691 21.577 21.603 21.577h69.113v50.823h-156.683v-20.19c0-5.523-4.477-10-10-10h-92.024c-5.523 0-10 4.477-10 10v20.19h-54.838c-5.081 0-9.355 3.811-9.935 8.859l-23.859 207.7c-.043.37-.065.767-.065 1.141v82.882c0 16.153 13.161 29.295 29.337 29.295h453.296c16.192 0 29.366-13.142 29.366-29.295v-82.882c.001-.014-.001-.028-.001-.042zm-225.31-290.058v-67.446c0-.84.749-1.577 1.603-1.577h158.227c.854 0 1.603.737 1.603 1.577v67.446c0 .854-.734 1.577-1.603 1.577h-158.227c-.853 0-1.603-.737-1.603-1.577zm-177.991 62.209h72.024v114.041h-72.024zm-65.921 30.19h45.921v83.851h-5.697c-5.523 0-10 4.477-10 10s4.477 10 10 10h123.391c5.523 0 10-4.477 10-10s-4.477-10-10-10h-5.669v-83.851h268.502l21.562 187.701h-469.572zm449.224 280.583c0 5.125-4.202 9.295-9.366 9.295h-453.297c-5.148 0-9.337-4.169-9.337-9.295v-72.882h472z" fill="#ffffff" data-original="#000000" class=""></path></g></g></svg>