<svg enable-background="new 0 0 83.6 77.1" viewBox="0 0 83.6 77.1" xmlns="http://www.w3.org/2000/svg" xmlns:xlink="http://www.w3.org/1999/xlink"><linearGradient id="a"><stop offset="0" stop-color="#e31e24"/><stop offset="1" stop-color="#fecc00"/></linearGradient><linearGradient id="b" gradientTransform="matrix(.07497194 0 0 -.07497194 -592.0179 -312.2119)" gradientUnits="userSpaceOnUse" x1="8482.0273" x2="8487.7168" xlink:href="#a" y1="-4306.5869" y2="-4108.5469"/><linearGradient id="c" gradientTransform="matrix(.07497194 0 0 -.07497194 -592.0179 -312.2119)" gradientUnits="userSpaceOnUse" x1="8477.5928" x2="8579.4033" xlink:href="#a" y1="-4412.0625" y2="-4118.6025"/><linearGradient id="d" gradientTransform="matrix(.07497194 0 0 -.07497194 -592.0179 -312.2119)" gradientUnits="userSpaceOnUse" x1="8478.9883" x2="8495.748" xlink:href="#a" y1="-4432.5835" y2="-4313.1133"/><linearGradient id="e" gradientTransform="matrix(.07497194 0 0 -.07497194 -592.0179 -312.2119)" gradientUnits="userSpaceOnUse" x1="8467.5537" x2="8509.4434" xlink:href="#a" y1="-4471.0308" y2="-4386.1406"/><g fill="#2b2a29"><path d="m33 32.4c0 .8 0 1.6-.1 2.4 0 .8-.1 1.5-.3 2.2 0 .1-.1.2-.2.3s-.3.2-.4.2c-.2 0-.4-.1-.6-.4s-.2-.6-.3-.9-.1-.7-.1-1 0-.6 0-.8 0-.5.1-1c0-.4.1-.9.2-1.4s.2-1.1.3-1.6.2-1 .4-1.5.3-.8.4-1.1c.2-.3.3-.4.5-.4h.2c.1 0 .2.1.5.2-.2.9-.3 1.8-.4 2.5s-.2 1.6-.2 2.3zm-10.9 2c0-.2.1-.3.1-.6 0-.2.1-.4.1-.6.1-.3.2-.6.3-.9s.2-.6.3-.9.2-.6.3-.9.2-.6.2-.8.1-.4.1-.6c.1-.3.1-.4.1-.5.1-.3.1-.6.1-.8s0-.4 0-.6 0-.4 0-.5 0-.2 0-.3 0-.2.1-.2c0-.1.1-.1.3-.2.1-.1.2-.1.3-.1.2 0 .3.1.4.3s.1.4.2.6c0 .1 0 .3-.1.4 0 .2-.1.4-.1.5s-.1.3-.1.4c0 .2-.1.3-.1.4v.3.5.5c0 .1 0 .2.1.3.2.2.5.3.9.4s.8.2 1.2.2c.4.1.8.2 1.2.3s.6.3.9.5c.3.3.5.7.7 1 .6 1 0 2.7-.8 3.5-.9.9-3.9 2-4.7 1.2 0-.1-.1-.2-.1-.4 0-.1-.1-.3-.1-.4s0-.2.1-.3c.2-.2.4-.3.6-.4 1.4-.2 5.8-.9 4.3-3-.2-.2-.4-.4-.8-.6-.1 0-.2-.1-.4-.1-.2-.1-.4-.1-.6-.2-.2 0-.5-.1-.7-.1s-.5 0-.7 0c-.3 0-.5 0-.7 0s-.4.1-.5.2c-.3.3-.5.6-.6 1s-.2.9-.2 1.3c-.1.5-.1.9-.2 1.4s-.2.9-.4 1.3c-.7.4-1.4.1-1.4-.7 0-.3.1-.6.2-.9s.2-.6.2-.9z"/><path clip-rule="evenodd" d="m38.3 28.7c0 .2.1.4.1.7 0 .2 0 .5.1.7 0 .2.1.4.2.6s.3.3.6.4c.1 0 .2.1.3.1.5-.1 1.2-.4 1.6 0 .2.1.3.2.4.4s.2.3.4.5c.1.2.2.3.4.4.1.1.3.2.5.2s.4 0 .6-.2c.2-.1.4-.2.6-.4s.4-.3.6-.5.4-.3.6-.4c1.1-.6 1.3.5 1.6 1.5.1.5.2.9.2 1.3s-.1.8-.2 1.2-.2.8-.4 1.2c0 .1-.6 1.5-.6 1.6.1.3.7 0 1.1.1.3.6 0 1.2-.5 1.5-.9.6-2.3.4-2.6-1-.1-.5.1-.8.5-1.7.3-.7 1.8-2.8 1.2-3.8-.3-.5-.6-.5-1.1-.2-.2.1-.3.3-.4.5s-.2.4-.2.7c-.1.2-.1.5-.2.7s-.2.5-.3.7-.3.4-.6.5c-.1 0-.1 0-.2.1-.1 0-.1 0-.2 0-.3 0-.5-.1-.7-.2-.2-.2-.4-.4-.5-.7 0-.1-.1-.3-.1-.4 0-.2 0-.4.1-.6s.1-.4.1-.7c0-.2 0-.4-.1-.6-.3-.7-1-.4-1.4-.1-.2.2-.4.4-.5.7s-.3.6-.3.9c-.1.3-.2.6-.3.9s-.3.6-.4.8c-.2.2-.4.4-.7.6h-.1c-.3 0-.5-.1-.7-.3-.7-.4-.8-.6-.8-.7s0-.2 0-.3 0-.2 0-.3c.4-1.3 1.8-4.9 1.1-5.6-.2-.3-1 0-2 1.6-.2.3-.4.6-.6.9-.1 0-.2 0-.3 0s-.2-.1-.3-.2c.1-.4.4-.8.6-1.1.6-.8 1.6-2.1 2.2-2.5.2-.1.5-.2.7-.2s.4.1.5.2c.2.1.3.3.4.5z" fill-rule="evenodd"/><path d="m58.5 32.3v2.3c0 .8-.1 1.5-.2 2.2 0 .1-.1.2-.2.3s-.2.2-.4.2-.4-.1-.5-.4c-.1-.2-.2-.5-.3-.9-.1-.3-.1-.7-.1-1s0-.6 0-.7c0-.2 0-.5 0-.9s.1-.9.1-1.4c.1-.5.1-1 .2-1.6.1-.5.2-1 .3-1.4s.2-.8.4-1.1c.1-.3.3-.4.5-.4h.2c.1 0 .2.1.5.2-.2.9-.2 1.7-.3 2.4-.2.8-.2 1.5-.2 2.2zm-8.9-5.7c0-.1.1-.1.3-.2.1-.1.2-.1.3-.1.2 0 .3.1.4.3.4.8-.2 2.4-.1 3.6 0 .1 0 .2.1.2 1.4 1.1 6.1.5 4.7 4.6-.5 1.5-2.8 2.6-4.3 2.5-.1 0-.2 0-.3 0s-.2 0-.3-.1c-.1 0-.2-.1-.2-.1-.1-.1-.1-.2-.2-.3 0-.1-.1-.3-.1-.4s0-.2.1-.3c.1-.2.3-.3.6-.4 3.7-.6 6.7-2.9 1.9-4-2.8-.6-2.8 1.2-3 3.8-.2 1.9-2.2 1.7-1.7.6.8-2.1 1.7-9.5 1.8-9.7z"/><path d="m62.6 23.9c.1.3.3.5.5.7 1.4 1.4 3.7.6 3.4-1.6.3-.4.8-.8.8-.3.1 4.8-5.8 4.8-4.7 1.1-.1-.1 0 0 0 .1z"/><path d="m70.7 38.1c-.7 1.4-2.6 1.1-3.2-.8-.4-1.2-.3-2.6-.6-2.9-.5.7-1.4 2-3.3 2.4-.4.1-.8.1-1.2.1s-.8-.1-1.1-.3c-1.4-.8-1.6-1.9-1.5-3.3.2-1.4.6-4.2 1.1-5.4.6-1.4 1.8-1 1.4-.3-.6 1.2-2.1 6.2 0 6.8 3.9 1.1 4.9-5.3 5.3-8.2.1-.1.2-.2.2-.3s.2-.1.2-.1c.7-.1 1 1 .9 1.4-.4 5 .3 8.5 1.8 10.9z"/><path d="m20.8 23.7c-3 .7-6 3-7.7 7.5-2.5 6.5 6.7 2.6 7.5 2.8.2.1.3.2.4.5-.1.6-.4 1-.9 1.3s-1 .6-1.5.8c-2.2.8-5.6.8-6.9-1.5-.3-.5-.4-1.1-.4-1.7.1-3.3 4.6-11.3 8.2-11.4 1.4.1 2.1 1.5 1.3 1.7z"/><path d="m24 44.9c.5 2.5-.9 4.7-.4 7.3.1.4.2.7.3 1.1-.1.5-.3.9-.6 1.1-1.7 1.6-8.1 2.6-9.1.1-1.3-3.3 5.9-5.4 8.1-5.1 1.2-.7 1.1-4.6-.7-4.3-.6.1-1.2.7-1.7.7h-.1c-.1-.1-.2-.1-.2-.2s-.1-.2-.1-.3 0-.1 0-.2 0-.1 0-.2c1.2-1.8 4-2.4 4.5 0zm-1.7 7c0-.2 0-.4-.1-.6s-.1-.4-.3-.5c-.9-1-4.3-.1-5.4 2-.6 1.3 1.9 1.4 2.7 1.3 1.7-.3 3.1-1 3.1-2.2z"/><path d="m33.7 56c0-.3.1-.7.3-1.1.9-2 1.4-6.5.2-7.3-.5-.3-1.5 0-2.6 1.8-.2.3-.3.6-.3.9 0 .9.7 2.2.4 3.2-.2.5-1.4-.1-1.4-.3.2-1 .3-2.6 0-3.2-.1-.2-.2-.4-.4-.6-.6-.6-1.4-1.1-1.9-1.1-2.9.4-1.4 4.7-1.2 6.2.1.7-.5 1.3-1 1.4-1.2.2-.8-7.2 0-8.6.5-.9 1.5-1.5 2.5-1.5s2.5 1.6 2.8 2.4c.7-1.7 3.2-5.2 4.7-1.9.9 1.9.3 8.3-.4 10.3-.1.2-.2.3-.4.4-.2 0-.4.1-.5.1-.3 0-.5-.1-.6-.3s-.2-.6-.2-.8z"/><path d="m53.9 44.8c1.8.7 2.8 2 2 3.9-.2.5-.5 1-.8 1.5s-.7.9-1.2 1.3c-.4.4-.9.7-1.4 1.1-.5.3-1 .6-1.5.9-2.9 1.6-2.8 4.3-3.3 7.4-.1.5-.2 1.5-.4 2.3-.1.7-.8 1.9-2 1.2-.8-.5-.5-2.6-.3-3.3.1-.5.2-1 .3-1.5s.3-1 .4-1.5.4-1.6.5-2.4c-.8-.1-2.5.8-3.2.4-.3-.2-.2-.9-.1-1.2 1.4-1.5 4.9-1.3 5.3-4.4.1-.6 0-1.4-.5-1.9-.1-.1-.2-.2-.3-.3s-.1-.2-.1-.3.1-.3.2-.4c.6-.9 1.4-1.6 2.2-2.1.9-.5 1.8-.7 2.8-.7h.6c.4-.1.6 0 .8 0zm1.2 3.7c.7-1.1.1-1.9-1-2.3-.5-.2-1-.3-1.6-.3s-1.1.1-1.6.3c-.3.1-.5.3-.7.5s-.3.5-.4.7c-.4 1.1-.3 2.4-.2 3.5.4 1.2 2.1.1 2.8-.2 1.2-.6 2.1-1.3 2.7-2.2z"/><path d="m65.4 53c-.1.5-.3.9-.6 1.1-1.7 1.6-7.4 2.5-9.3 1-.3-.2-.6-.4-.7-.7-1.1-3.8 7.3-5.4 9-5.3 1.1-1.1 1.9-6-1.8-3.9-.9.5-1.5-.2-.6-1.2.9-.9 3.2-1.6 4.1-.5 1.7 1.9-1.5 6.5-.1 9.5zm-4.6-2.9c-1.3.3-2.8 1.1-3.4 1.7-2.7 3.1 5.7 2.5 6.3.1.3-1.1-.5-2.3-2.9-1.8z"/><path d="m70.7 41.6c.8 2.8 4.7 1.4 4.1-1.7.2-.5.8-.7.9 0 1 5.3-5.6 6-5.1 1.7.1-.2.1-.1.1 0z"/><path d="m79.3 57.4c-.8 1.6-3 1.3-3.6-.9-.4-1.4-.4-3-.6-3.3-.6.7-1.6 2.3-3.8 2.7-.5.1-.9.1-1.4.1s-.9-.2-1.2-.4c-1.6-.9-1.8-2.1-1.7-3.8.2-1.6.7-4.8 1.3-6.1.6-1.5 2-1.2 1.6-.3-.7 1.4-2.4 7.1 0 7.7 4.4 1.2 5.6-6 6-9.4.1-.1.2-.3.3-.4s.2-.1.3-.2c.8-.2 1.1 1.1 1 1.6-.7 6 .1 9.9 1.8 12.7z"/><path d="m13.2 41.9c-3.4.8-6.8 3.5-8.8 8.6-2.9 7.4 7.7 2.9 8.5 3.2.2.1.4.3.4.6-.2.6-.5 1.1-1 1.5s-1.1.7-1.7.9c-2.5.9-6.3.9-7.8-1.7-.3-.5-.4-1.2-.4-2 .1-3.8 5.3-12.9 9.4-13 1.6 0 2.3 1.7 1.4 1.9z"/><path d="m45.7 43c-.3 1.6-3.5 10.6-4.5 12.4-2.9 5.4-1.9 5.7-2.7 9.9-.1.4-.2.7-.3 1-.5 1.1-1.7 1.2-1.8 0 .1-1 .1-1.9.2-2.7.3-3.8 1.1-5.6 2.8-8.9.1-.2.3-.5.4-.8s.3-.7.4-1c.1-.4.2-.7.3-1.1.1-.7.3-1.1-.5-1.3-2-.5-2.7-2.1-2.7-5.1.2.1.9.1 1 .4.3.5.6 3.1 1.6 3.1 1.6 0 3.9-4.4 4.6-6.1z"/></g><path clip-rule="evenodd" d="m43.9 0c-6 0-10.9 4.9-10.9 10.9v.3c6.3-.6 14.4-.8 21.8-.6-.1-5.8-4.9-10.6-10.9-10.6z" fill="url(#b)" fill-rule="evenodd"/><path clip-rule="evenodd" d="m29.9 14.9c-4.4.5-8.7.8-13.3 1.6-.5.5-1.4.3-1.6-.9-.1-1.2.9-1.5 1.3-1.2 4.8-.9 8.5-1.3 13.4-1.7.1-.6.2-1.1.3-1.4.2-.1.5-.2.7-.1.5.2 1 .9 1.1 1.3 11.7-1.4 32-.8 39.4.9 1.3.3 2.3 1.2 2.8 1.9.2.4 0 .4-.2.4-14.1-1.8-30.1-2.2-41.9-1 0 .5-.1.9-.3 1.3-.1.1-.5.2-.7.1-.4-.1-.8-.6-1-1.2z" fill="url(#c)" fill-rule="evenodd"/><path clip-rule="evenodd" d="m34.3 15.9c4.6-.8 20.1-.6 19.9.5-.2 1.2-7.5 1.2-14.6 2.4 19.3.1 11.7 1.1 2.5 1-.2 0-3.8-.1-5.2-.1-.6 0-1.1-.4-.4-.8 1.5-.8 6.2-1.6 10.3-2.1-4.8.1-8 0-11.5 1.1 0-.1-1-2-1-2z" fill="url(#d)" fill-rule="evenodd"/><path clip-rule="evenodd" d="m46.6 21.9c-1.8 0-2.8 0-4.7.1l2.5.6c-.3.1-.7.3-1 .4l-3-.7-.4-.5c2.7-.9 4.8-1.1 7.4-1.2z" fill="url(#e)" fill-rule="evenodd"/></svg>