<svg enable-background="new 0 0 512 512" height="512" viewBox="0 0 512.032 512.032" width="512" xmlns="http://www.w3.org/2000/svg"><g fill="#a2a7ab"><path d="m496.016 224c-8.832 0-16 7.168-16 16v181.184l-128 51.2v-168.384c0-8.832-7.168-16-16-16s-16 7.168-16 16v168.352l-128-51.2v-253.504l74.144 29.664c8.096 3.264 17.504-.704 20.8-8.928 3.296-8.192-.704-17.504-8.928-20.8l-95.776-38.336s0 0-.032 0l-.256-.096c-3.808-1.536-8.064-1.536-11.872 0l-.288.096s0 0-.032 0l-159.712 63.904c-6.048 2.432-10.048 8.288-10.048 14.848v288c0 5.312 2.656 10.272 7.04 13.248 2.688 1.824 5.792 2.752 8.96 2.752 2.016 0 4.032-.384 5.952-1.152l154.048-61.6 153.76 61.504h.032l.288.128c3.808 1.536 8.064 1.536 11.872 0l.288-.128h.032l159.712-63.872c6.016-2.464 10.016-8.32 10.016-14.88v-192c0-8.832-7.168-16-16-16zm-336 197.152-128 51.2v-253.536l128-51.2z"/><path d="m400.016 64c-26.464 0-48 21.536-48 48s21.536 48 48 48 48-21.536 48-48-21.536-48-48-48zm0 64c-8.832 0-16-7.168-16-16s7.168-16 16-16 16 7.168 16 16-7.168 16-16 16z"/><path d="m400.016 0c-61.76 0-112 50.24-112 112 0 57.472 89.856 159.264 100.096 170.688 3.04 3.36 7.36 5.312 11.904 5.312s8.864-1.952 11.904-5.312c10.24-11.424 100.096-113.216 100.096-170.688 0-61.76-50.24-112-112-112zm0 247.584c-34.944-41.44-80-105.056-80-135.584 0-44.096 35.904-80 80-80s80 35.904 80 80c0 30.496-45.056 94.144-80 135.584z"/></g></svg>