<svg xmlns="http://www.w3.org/2000/svg" version="1.1" xmlns:xlink="http://www.w3.org/1999/xlink" xmlns:svgjs="http://svgjs.com/svgjs" width="512" height="512" x="0" y="0" viewBox="0 0 512 512" style="enable-background:new 0 0 512 512" xml:space="preserve" class=""><g><path d="m449.299 0h-386.598c-34.574 0-62.701 28.127-62.701 62.701v386.598c0 34.574 28.127 62.701 62.701 62.701h386.598c34.574 0 62.701-28.127 62.701-62.701v-386.598c0-34.574-28.127-62.701-62.701-62.701zm30.701 449.299c0 16.929-13.772 30.701-30.701 30.701h-386.598c-16.929 0-30.701-13.772-30.701-30.701v-386.598c0-16.929 13.772-30.701 30.701-30.701h386.598c16.929 0 30.701 13.772 30.701 30.701zm-82-67.299c0 8.836-7.164 16-16 16h-252c-8.836 0-16-7.164-16-16s7.164-16 16-16h252c8.836 0 16 7.164 16 16zm0-126c0 8.836-7.164 16-16 16h-252c-8.836 0-16-7.164-16-16s7.164-16 16-16h252c8.836 0 16 7.164 16 16zm0-126c0 8.836-7.164 16-16 16h-252c-8.836 0-16-7.164-16-16s7.164-16 16-16h252c8.836 0 16 7.164 16 16z" fill="#e6351e" data-original="#000000" class=""></path></g></svg>