<svg enable-background="new 0 0 512 512" height="512" viewBox="0 0 512 512" width="512" xmlns="http://www.w3.org/2000/svg"><g fill="#a2a7ab"><path d="m414 28.055h-56.325c-14.863-17.166-36.767-28.055-61.175-28.055h-81c-24.408 0-46.312 10.889-61.175 28.055h-56.325c-24.813 0-45 20.227-45 45.088v393.769c0 24.861 20.187 45.088 45 45.088h316c24.813 0 45-20.227 45-45.088v-393.769c0-24.862-20.187-45.088-45-45.088zm-198.5 2.004h81c23.177 0 42.425 15.515 48.75 36.07h-178.5c6.314-20.519 25.537-36.07 48.75-36.07zm213.5 436.853c0 8.287-6.729 15.029-15 15.029h-316c-8.271 0-15-6.742-15-15.029v-393.769c0-8.287 6.729-15.029 15-15.029h39.846c-2.165 7.31-3.346 15.04-3.346 23.045 0 8.3 6.716 15.029 15 15.029h213c8.284 0 15-6.729 15-15.029 0-8.005-1.181-15.735-3.346-23.045h39.846c8.271 0 15 6.742 15 15.029z"/><path d="m182.06 298.644-22.06 22.102-5.394-5.404c-5.857-5.87-15.355-5.87-21.213 0-5.858 5.869-5.858 15.385 0 21.254l16 16.031c5.857 5.869 15.355 5.87 21.213 0l32.666-32.73c5.858-5.869 5.858-15.385 0-21.254-5.857-5.869-15.355-5.869-21.212.001z"/><path d="m367 310.607h-121c-8.284 0-15 6.729-15 15.029s6.716 15.029 15 15.029h121c8.284 0 15-6.729 15-15.029s-6.716-15.029-15-15.029z"/><path d="m182.06 384.812-22.06 22.102-5.394-5.404c-5.857-5.87-15.355-5.87-21.213 0-5.858 5.869-5.858 15.385 0 21.254l16 16.031c5.857 5.869 15.355 5.87 21.213 0l32.666-32.73c5.858-5.869 5.858-15.385 0-21.254-5.857-5.869-15.355-5.869-21.212.001z"/><path d="m367 396.775h-121c-8.284 0-15 6.729-15 15.029s6.716 15.029 15 15.029h121c8.284 0 15-6.729 15-15.029s-6.716-15.029-15-15.029z"/><path d="m284.606 241.077 46.394-46.484v1.791c0 8.3 6.716 15.029 15 15.029s15-6.729 15-15.029c0-42.513.07-38.555-.172-40.234-1.061-7.353-7.353-12.872-14.833-12.87h-37.995c-8.284 0-15 6.729-15 15.029s6.716 15.029 15 15.029h1.787l-35.787 35.857-45.394-45.482c-5.857-5.87-15.355-5.87-21.213 0l-54 54.106c-5.858 5.869-5.858 15.385 0 21.254 5.857 5.87 15.355 5.87 21.213 0l43.394-43.478 45.394 45.482c5.856 5.869 15.355 5.87 21.212 0z"/></g></svg>