<svg xmlns="http://www.w3.org/2000/svg" version="1.1" xmlns:xlink="http://www.w3.org/1999/xlink" xmlns:svgjs="http://svgjs.com/svgjs" width="512" height="512" x="0" y="0" viewBox="0 0 91 91" style="enable-background:new 0 0 512 512" xml:space="preserve" class=""><g><g><path d="m6.8 76.5 22 14c.1 0 .7.3 1.2.3 39.6 0 52.6-8.5 53.1-8.9.7-.5 1-1.2 1-2-.2-2.1-4.5-52.7-8.1-65.3-3.1-11-12-14.6-16.4-14.2l-35.4 4.6c-1.2.2-2.1 1.3-1.9 2.5s1.3 2.1 2.5 1.9l35.2-4.6c1.1.1 8.9 1 11.7 11.1 3.1 11 7 54.5 7.8 63-3.7 1.8-17 7.2-47 7.5 1.2-11 4.6-47.8-3.5-66.3-1.3-3.5-4.4-8.5-10.5-10.5-5.6-1.5-9.4-1-11.5 1.3-2.6 2.9-1.2 7.1-1 7.6.8 2.4 3 6.7 8 7.8 1.1.3 2.2-.1 3.2-.6-3.5 15.6-9.6 43.4-11.3 48.2 0 0-.4 1 0 1.7s.9.9.9.9zm11.7-2.6 3.1 6.8-8.3-5.3zm9.7 10.4-6.2-13.4 5.6-40.1c3.2 16 2.1 39.6.6 53.5zm-15-64.7c1 .6 3.3-.6 3.5-.6-.1.3-1.8 2.9-2.1 2.9-4.9-1.5-5.6-6.4-4.4-8 2.2-2.7 8.6.5 9.3.8-.1.1-.1.3-.2.4-2.1-1.2-5.4-.5-6.7 1.4-.7 1.1-.4 2.5.6 3.1zm10-1.2c.5.7.9 1.5 1.4 2.4l-6.8 48.6-6.5 1.9c3.2-12.2 10-44.1 11.9-52.9z" fill="#bcc1c4" data-original="#000000" class=""></path><path d="m71.6 68.6c1 .7 1.3 2 .7 3.1-3 4.6-5.9 4.5-8.4 4.5-1.4-.1-2.7-.1-4.4.5-.5.2-.8.4-1.2.9-1.1 1.1-2.3 2-5.1 1.9-2.9-.1-6.7-2-8.4-3.1-1-.7-1.3-2.1-.6-3.1.2-.4.6-.6.9-.8.7-.3 1.5-.2 2.1.2 1.6 1.1 4.5 2.3 6 2.4 1.1 0 1.3-.1 1.9-.7.6-.5 1.4-1.3 2.8-1.8 2.5-.9 4.5-.9 6-.8 2.1.1 2.9.1 4.6-2.4.7-1.1 2.1-1.4 3.1-.8z" fill="#bcc1c4" data-original="#000000" class=""></path><path d="m62.1 68.1c-.1-.1-.1-.2-.2-.3-.3.2-.9.6-1.3.9-1.8 1.3-5 3.7-9 .9-1-.7-1.2-2.1-.5-3.1.2-.3.6-.6.9-.8.7-.3 1.5-.2 2.2.2 1.2.9 1.9.6 3.8-.8 1.3-.9 2.8-2 4.6-1.7 1.2.2 2.2.9 3.1 2.1.7 1 .5 2.4-.5 3.1s-2.4.5-3.1-.5z" fill="#bcc1c4" data-original="#000000" class=""></path><path d="m63.1 39.5c.2.2.6.2.7-.1l5.1-6.2c.8-.9 2.2-1.1 3.1-.3s1.1 2.2.3 3.1l-5.1 6.2c-1 1.2-2.4 1.8-3.8 1.8-.9 0-1.8-.3-2.7-.8l-1.4 1.7 7.7 6.4c.9.8 1.1 2.2.3 3.1-.4.5-1.1.8-1.7.8-.5 0-1-.2-1.4-.5l-7.8-6.4-6.4 7.8c-.4.5-1.1.8-1.7.8-.5 0-1-.2-1.4-.5-.9-.8-1.1-2.2-.3-3.1l6.4-7.8-8.8-7.2c.8 1.9 2.3 4.1 5 6 1 .7 1.2 2.1.5 3.1-.4.6-1.1.9-1.8.9-.4 0-.9-.1-1.3-.4-8.8-6.3-7.7-15.4-7.7-15.4s0-1.4 1.1-2c1.3-.7 2.6.6 2.6.6l13.4 11 1.4-1.7c-1.7-1.8-1.8-4.6-.2-6.6l5.1-6.2c.8-.9 2.2-1.1 3.1-.3s1.1 2.2.3 3.1l-5.1 6.2c-.2.2-.2.6.1.7z" fill="#bcc1c4" data-original="#000000" class=""></path></g></g></svg>