<svg enable-background="new 0 0 512 512" height="512" viewBox="0 0 24 24" width="512" xmlns="http://www.w3.org/2000/svg"><g fill="#a2a7ab"><path d="m8.785 22.965a7.75 7.75 0 0 1 -5.48-13.23 7.8 7.8 0 0 1 8.153-1.788l6.691-6.692a.742.742 0 0 1 .614-.215l3.181.353a.749.749 0 0 1 .662.663l.354 3.182a.751.751 0 0 1 -.215.613l-.707.707a.733.733 0 0 1 -.293.181l-1.766.589-.587 1.765a.752.752 0 0 1 -.475.474l-1.767.589-.587 1.766a.778.778 0 0 1 -.182.293l-.327.327a7.8 7.8 0 0 1 -1.789 8.158 7.7 7.7 0 0 1 -5.48 2.265zm.015-13.989a6.239 6.239 0 0 0 -4.43 10.658 6.249 6.249 0 0 0 8.839 0 6.283 6.283 0 0 0 1.283-6.965.749.749 0 0 1 .155-.836l.553-.553.651-1.954a.755.755 0 0 1 .474-.474l1.767-.589.583-1.763a.754.754 0 0 1 .474-.475l1.951-.653.327-.327-.247-2.227-2.225-.248-6.788 6.788a.753.753 0 0 1 -.836.155 6.22 6.22 0 0 0 -2.531-.537z"/><path d="m8.427 18.322a2.749 2.749 0 1 1 1.944-.8 2.741 2.741 0 0 1 -1.944.8zm0-3.998a1.25 1.25 0 1 0 .884.366 1.247 1.247 0 0 0 -.884-.366z"/></g></svg>