<?xml version="1.0" encoding="utf-8"?>
<!-- Generator: Adobe Illustrator 23.0.0, SVG Export Plug-In . SVG Version: 6.00 Build 0)  -->
<svg version="1.1" id="Слой_1" xmlns:svgjs="http://svgjs.com/svgjs"
	 xmlns="http://www.w3.org/2000/svg" xmlns:xlink="http://www.w3.org/1999/xlink" x="0px" y="0px" viewBox="0 0 512 512"
	 style="enable-background:new 0 0 512 512;" xml:space="preserve">
<style type="text/css">
	.st0{fill:#A2A7AB;}
</style>
<g>
	<path class="st0" d="M480.6,361.5c-0.8-0.7-96.8-69-122.7-64.8c-12.5,2.2-19.6,10.7-34,27.8c-2.3,2.8-7.9,9.3-12.1,14
		c-9.1-2.9-17.9-6.5-26.4-10.8c-44.1-21.5-79.7-57.1-101.1-101.1c-4.2-8.5-7.8-17.4-10.8-26.4c4.7-4.3,11.3-9.9,14.1-12.2
		c17-14.2,25.5-21.4,27.7-33.9c4.5-25.9-64.1-121.8-64.8-122.7c-6.3-9-16.3-14.6-27.3-15.4C95.4,16,16,119,16,136.3
		c0,1,1.5,103.5,127.8,232C272.2,494.5,374.7,496,375.7,496C393,496,496,416.6,496,388.8C495.2,377.8,489.5,367.8,480.6,361.5z
		 M373.9,463.9c-13.9-1.2-100-12.5-207.5-118.1C60.3,237.7,49.2,151.5,48.1,138.1c21-32.9,46.3-62.8,75.3-89
		c0.6,0.6,1.5,1.6,2.6,2.8c22.2,30.4,41.4,62.9,57.2,97c-5.1,5.2-10.6,10-16.3,14.6c-8.8,6.7-16.9,14.4-24.2,22.8
		c-2.5,3.5-3.5,7.8-2.7,12c3.4,14.7,8.6,28.9,15.4,42.3c24.6,50.5,65.4,91.4,116,116c13.4,6.9,27.6,12.1,42.3,15.5
		c4.2,0.7,8.5-0.2,12-2.7c8.4-7.3,16.1-15.4,22.8-24.3c5-6,11.7-14,14.3-16.2c34.2,15.8,66.8,35,97.2,57.2c1.3,1.1,2.3,2,2.9,2.5
		C436.8,417.6,406.8,442.9,373.9,463.9L373.9,463.9z"/>
	<path class="st0" d="M368,240h32c-0.1-70.7-57.3-127.9-128-128v32C325,144.1,367.9,187,368,240z"/>
	<path class="st0" d="M448,240h32c-0.1-114.8-93.2-207.9-208-208v32C369.2,64.1,447.9,142.8,448,240z"/>
</g>
</svg>
