<svg enable-background="new 0 0 512 512" viewBox="0 0 512 512" xmlns="http://www.w3.org/2000/svg"><g fill="#e6351e"><path d="m480.6 361.5c-.8-.7-96.8-69-122.7-64.8-12.5 2.2-19.6 10.7-34 27.8-2.3 2.8-7.9 9.3-12.1 14-9.1-2.9-17.9-6.5-26.4-10.8-44.1-21.5-79.7-57.1-101.1-101.1-4.2-8.5-7.8-17.4-10.8-26.4 4.7-4.3 11.3-9.9 14.1-12.2 17-14.2 25.5-21.4 27.7-33.9 4.5-25.9-64.1-121.8-64.8-122.7-6.3-9-16.3-14.6-27.3-15.4-27.8 0-107.2 103-107.2 120.3 0 1 1.5 103.5 127.8 232 128.4 126.2 230.9 127.7 231.9 127.7 17.3 0 120.3-79.4 120.3-107.2-.8-11-6.5-21-15.4-27.3zm-106.7 102.4c-13.9-1.2-100-12.5-207.5-118.1-106.1-108.1-117.2-194.3-118.3-207.7 21-32.9 46.3-62.8 75.3-89 .6.6 1.5 1.6 2.6 2.8 22.2 30.4 41.4 62.9 57.2 97-5.1 5.2-10.6 10-16.3 14.6-8.8 6.7-16.9 14.4-24.2 22.8-2.5 3.5-3.5 7.8-2.7 12 3.4 14.7 8.6 28.9 15.4 42.3 24.6 50.5 65.4 91.4 116 116 13.4 6.9 27.6 12.1 42.3 15.5 4.2.7 8.5-.2 12-2.7 8.4-7.3 16.1-15.4 22.8-24.3 5-6 11.7-14 14.3-16.2 34.2 15.8 66.8 35 97.2 57.2 1.3 1.1 2.3 2 2.9 2.5-26.1 29-56.1 54.3-89 75.3z"/><path d="m368 240h32c-.1-70.7-57.3-127.9-128-128v32c53 .1 95.9 43 96 96z"/><path d="m448 240h32c-.1-114.8-93.2-207.9-208-208v32c97.2.1 175.9 78.8 176 176z"/></g></svg>