<svg xmlns="http://www.w3.org/2000/svg" version="1.1" xmlns:xlink="http://www.w3.org/1999/xlink" xmlns:svgjs="http://svgjs.com/svgjs" width="512" height="512" x="0" y="0" viewBox="0 0 64 64" style="enable-background:new 0 0 512 512" xml:space="preserve" class=""><g><g id="Layer_5" data-name="Layer 5"><path d="M27,60h2a1,1,0,0,0,0-2H27a1,1,0,0,0,0,2Z" fill="#000000" data-original="#000000"></path><path d="M29,19H26a1,1,0,0,0-1,1v3a1,1,0,0,0,2,0V21h2a1,1,0,0,0,0-2Z" fill="#000000" data-original="#000000"></path><path d="M51,20a1,1,0,0,0-1-1H47a1,1,0,0,0,0,2h2v2a1,1,0,0,0,2,0Z" fill="#000000" data-original="#000000"></path><path d="M25,44a1,1,0,0,0,1,1h3a1,1,0,0,0,0-2H27V41a1,1,0,0,0-2,0Z" fill="#000000" data-original="#000000"></path><path d="M47,45h3a1,1,0,0,0,1-1V41a1,1,0,0,0-2,0v2H47a1,1,0,0,0,0,2Z" fill="#000000" data-original="#000000"></path><path d="M33,22H29a1,1,0,0,0-1,1v4a1,1,0,0,0,1,1h4a1,1,0,0,0,1-1V23A1,1,0,0,0,33,22Zm-1,4H30V24h2Z" fill="#000000" data-original="#000000"></path><path d="M48,23a1,1,0,0,0-1-1H43a1,1,0,0,0-1,1v4a1,1,0,0,0,1,1h4a1,1,0,0,0,1-1Zm-2,3H44V24h2Z" fill="#000000" data-original="#000000"></path><path d="M34,41V37a1,1,0,0,0-1-1H29a1,1,0,0,0-1,1v4a1,1,0,0,0,1,1h4A1,1,0,0,0,34,41Zm-2-1H30V38h2Z" fill="#000000" data-original="#000000"></path><path d="M42,41a1,1,0,0,0,1,1h4a1,1,0,0,0,1-1V37a1,1,0,0,0-1-1H43a1,1,0,0,0-1,1Zm2-3h2v2H44Z" fill="#000000" data-original="#000000"></path><path d="M31,33H29a1,1,0,0,0,0,2h2a1,1,0,0,0,0-2Z" fill="#000000" data-original="#000000"></path><path d="M37,35a1,1,0,0,0,1-1V31a1,1,0,0,0-2,0v2H34a1,1,0,0,0,0,2Z" fill="#000000" data-original="#000000"></path><path d="M41,28a1,1,0,0,0-1-1H37a1,1,0,0,0,0,2h2v5a1,1,0,0,0,2,0Z" fill="#000000" data-original="#000000"></path><path d="M43,35h4a1,1,0,0,0,0-2H43a1,1,0,0,0,0,2Z" fill="#000000" data-original="#000000"></path><path d="M36,42a1,1,0,0,0,1-1V40a1,1,0,0,0-2,0v1A1,1,0,0,0,36,42Z" fill="#000000" data-original="#000000"></path><path d="M40,42a1,1,0,0,0,1-1V37a1,1,0,0,0-1-1H36a1,1,0,0,0,0,2h3v3A1,1,0,0,0,40,42Z" fill="#000000" data-original="#000000"></path><path d="M42,31a1,1,0,0,0,2,0,1,1,0,0,0,0-2H43a1,1,0,0,0-1,1Z" fill="#000000" data-original="#000000"></path><path d="M47,29a1,1,0,0,0-1,1v1a1,1,0,0,0,2,0V30A1,1,0,0,0,47,29Z" fill="#000000" data-original="#000000"></path><path d="M33,30v1a1,1,0,0,0,2,0V30a1,1,0,0,0-2,0Z" fill="#000000" data-original="#000000"></path><path d="M31,30H30a1,1,0,0,0-2,0v1a1,1,0,0,0,1,1h2a1,1,0,0,0,0-2Z" fill="#000000" data-original="#000000"></path><path d="M37,25V24a1,1,0,0,0,0-2H36a1,1,0,0,0-1,1v2a1,1,0,0,0,2,0Z" fill="#000000" data-original="#000000"></path><path d="M41,23a1,1,0,0,0-2,0v2a1,1,0,0,0,2,0Z" fill="#000000" data-original="#000000"></path><path d="M53,24a1,1,0,0,0,1-1V19a3,3,0,0,0-3-3H46V5a5.006,5.006,0,0,0-5-5H15a5.006,5.006,0,0,0-5,5V59a5.006,5.006,0,0,0,5,5H41a5.006,5.006,0,0,0,5-5V48h5a3,3,0,0,0,3-3V27a1,1,0,0,0-2,0V45a1,1,0,0,1-1,1H25a1,1,0,0,1-1-1V19a1,1,0,0,1,1-1H51a1,1,0,0,1,1,1v4A1,1,0,0,0,53,24ZM37.382,2l-.724,1.447A1,1,0,0,1,35.764,4H20.236a1,1,0,0,1-.894-.553L18.618,2ZM22,19V45a3,3,0,0,0,3,3H44V59a3,3,0,0,1-3,3H15a3,3,0,0,1-3-3V5a3,3,0,0,1,3-3h1.382l1.171,2.342A2.983,2.983,0,0,0,20.236,6H35.764a2.983,2.983,0,0,0,2.683-1.658L39.618,2H41a3,3,0,0,1,3,3V16H25A3,3,0,0,0,22,19Z" fill="#000000" data-original="#000000"></path></g></g></svg>