<svg enable-background="new 0 0 512 512" height="512" viewBox="0 0 24 24" width="512" xmlns="http://www.w3.org/2000/svg"><g fill="#a2a7ab"><path clip-rule="evenodd" d="m7 3.75c-2.34721 0-4.25 1.90279-4.25 4.25v12.9194c0 .2096.24248.3261.40617.1952l2.82748-2.262c.48761-.3901 1.09347-.6026 1.71791-.6026h9.29844c2.3472 0 4.25-1.9028 4.25-4.25v-6c0-2.34721-1.9028-4.25-4.25-4.25zm-5.75 4.25c0-3.17564 2.57436-5.75 5.75-5.75h10c3.1756 0 5.75 2.57436 5.75 5.75v6c0 3.1756-2.5744 5.75-5.75 5.75h-9.29844c-.28384 0-.55923.0966-.78087.2739l-2.82747 2.262c-1.14584.9167-2.84322.1009-2.84322-1.3665z" fill-rule="evenodd"/><path d="m8.30005 11.0498c0 .6904-.55965 1.25-1.25 1.25-.69036 0-1.25-.5596-1.25-1.25s.55964-1.25 1.25-1.25c.69035 0 1.25.5596 1.25 1.25z"/><path d="m13.3 11.0498c0 .6904-.5596 1.25-1.25 1.25-.6903 0-1.25-.5596-1.25-1.25s.5597-1.25 1.25-1.25c.6904 0 1.25.5596 1.25 1.25z"/><path d="m18.3 11.0498c0 .6904-.5596 1.25-1.25 1.25-.6903 0-1.25-.5596-1.25-1.25s.5597-1.25 1.25-1.25c.6904 0 1.25.5596 1.25 1.25z"/></g></svg>