<svg xmlns="http://www.w3.org/2000/svg" version="1.1" xmlns:xlink="http://www.w3.org/1999/xlink" xmlns:svgjs="http://svgjs.com/svgjs" width="512" height="512" x="0" y="0" viewBox="0 0 511.851 511.851" style="enable-background:new 0 0 512 512" xml:space="preserve" class=""><g><g><path d="m149.703 227.575c0-7.629-6.207-13.836-13.837-13.836h-19.339c-7.63 0-13.837 6.207-13.837 13.836v15.824c0 7.63 6.207 13.837 13.837 13.837h19.339c7.63 0 13.837-6.207 13.837-13.837zm-15 14.661h-17.013v-13.498h17.013z" fill="#000000" data-original="#000000"></path><path d="m84.959 227.575c0-7.629-6.207-13.836-13.837-13.836h-19.338c-7.63 0-13.837 6.207-13.837 13.836v15.824c0 7.63 6.207 13.837 13.837 13.837h19.338c7.63 0 13.837-6.207 13.837-13.837zm-15 14.661h-17.012v-13.498h17.012z" fill="#000000" data-original="#000000"></path><path d="m149.703 284.531c0-7.63-6.207-13.837-13.837-13.837h-19.339c-7.63 0-13.837 6.207-13.837 13.837v15.824c0 7.629 6.207 13.836 13.837 13.836h19.339c7.63 0 13.837-6.207 13.837-13.836zm-15 14.661h-17.013v-13.498h17.013z" fill="#000000" data-original="#000000"></path><path d="m84.959 284.531c0-7.63-6.207-13.837-13.837-13.837h-19.338c-7.63 0-13.837 6.207-13.837 13.837v15.824c0 7.629 6.207 13.836 13.837 13.836h19.338c7.63 0 13.837-6.207 13.837-13.836zm-15 14.661h-17.012v-13.498h17.012z" fill="#000000" data-original="#000000"></path><path d="m135.867 327.651h-19.339c-7.63 0-13.837 6.207-13.837 13.837v15.824c0 7.63 6.207 13.837 13.837 13.837h19.339c7.63 0 13.837-6.207 13.837-13.837v-15.824c-.001-7.63-6.208-13.837-13.837-13.837zm-1.164 28.497h-17.013v-13.498h17.013z" fill="#000000" data-original="#000000"></path><path d="m71.122 327.651h-19.338c-7.63 0-13.837 6.207-13.837 13.837v15.824c0 7.63 6.207 13.837 13.837 13.837h19.338c7.63 0 13.837-6.207 13.837-13.837v-15.824c0-7.63-6.207-13.837-13.837-13.837zm-1.163 28.497h-17.012v-13.498h17.012z" fill="#000000" data-original="#000000"></path><path d="m181.272 371.148h19.338c7.63 0 13.837-6.207 13.837-13.837v-15.824c0-7.63-6.207-13.837-13.837-13.837h-19.338c-7.63 0-13.837 6.207-13.837 13.837v15.824c0 7.63 6.207 13.837 13.837 13.837zm1.163-28.497h17.012v13.498h-17.012z" fill="#000000" data-original="#000000"></path><path d="m502.912 446.539-12.028-21.031 7.743-76.748c3.923-38.884-11.577-77.134-41.463-102.318l-63.085-53.158-65.81-115.07c-4.172-7.295-10.936-12.529-19.044-14.737-8.109-2.207-16.593-1.127-23.887 3.046l-40.891 23.386v-47.833c0-23.201-18.875-42.076-42.075-42.076h-152.349c-23.201 0-42.076 18.875-42.076 42.076v318.904c0 21.75 16.588 39.698 37.777 41.858v86.49c0 3.487 1.759 6.683 4.706 8.548 2.948 1.866 6.59 2.088 9.741.596l16.425-7.776 21.205 9.189c1.28.554 2.649.831 4.019.831 1.422 0 2.844-.298 4.166-.895l20.266-9.153 21.098 9.194c2.68 1.168 5.733 1.122 8.375-.13l19.019-9.01 17.668 7.929c3.144 1.41 6.747 1.135 9.64-.738 2.892-1.873 4.619-5.047 4.619-8.493v-86.582c21.189-2.16 37.777-20.108 37.777-41.858v-24.862l9.247 16.168c1.001 1.75 2.155 3.379 3.437 4.878l-3.214 16.078c-1.373 6.868.012 13.858 3.897 19.685s9.807 9.792 16.674 11.164c1.73.346 3.468.517 5.193.517 5.123 0 10.133-1.507 14.492-4.413.076-.051.148-.105.223-.156 3.717 5.695 9.624 9.956 16.804 11.391 1.705.341 3.416.506 5.111.506 4.349 0 8.589-1.098 12.357-3.112 9.466 27.95 26.261 53.264 48.865 72.807l5.272 4.559 12.515 21.882c1.385 2.421 3.915 3.778 6.517 3.778 1.263 0 2.542-.319 3.717-.991 3.595-2.056 4.843-6.638 2.787-10.234l-13.15-22.994c-.421-.736-.963-1.395-1.605-1.95l-6.241-5.396c-31.313-27.074-50.379-66.316-52.309-107.666l-2.611-55.917c-.165-3.544-1.183-7.046-2.946-10.129l-25.631-44.816c-1.886-3.297-2.375-7.131-1.376-10.796s3.364-6.722 6.661-8.607c3.298-1.886 7.13-2.377 10.797-1.376 3.665.998 6.722 3.363 8.607 6.66l14.322 25.042c2.057 3.596 6.639 4.843 10.233 2.788 3.596-2.057 4.844-6.639 2.788-10.234l-14.321-25.042c-3.875-6.775-10.156-11.636-17.687-13.687-7.531-2.05-15.41-1.046-22.185 2.829-13.986 7.999-18.857 25.886-10.858 39.872l25.631 44.815c.588 1.029.928 2.198.983 3.381l1.246 26.679-29.51 16.877c-3.817 2.183-8.255 2.75-12.498 1.593-4.243-1.155-7.782-3.894-9.965-7.711l-58.994-103.15c-2.057-3.596-6.64-4.845-10.234-2.787-3.595 2.056-4.843 6.638-2.787 10.234l13.714 23.979c-2.223-1.525-4.91-2.421-7.804-2.421h-19.338c-7.63 0-13.837 6.207-13.837 13.837v15.824c0 7.629 6.207 13.836 13.837 13.836h19.338c7.63 0 13.837-6.207 13.837-13.836v-15.824c0-.321-.027-.636-.048-.952l15.048 26.312v51.089c0 14.93-12.146 27.076-27.075 27.076h-152.351c-14.93 0-27.076-12.146-27.076-27.076v-318.905c0-14.93 12.146-27.076 27.076-27.076h152.349c14.929 0 27.075 12.146 27.075 27.076v56.412l-15 8.579v-38.306c0-6.658-5.417-12.075-12.075-12.075h-152.349c-6.659 0-12.076 5.417-12.076 12.076v32.008c0 4.142 3.358 7.5 7.5 7.5s7.5-3.358 7.5-7.5v-29.084h146.5v43.959l-33.794 19.328c-13.688 7.828-19.265 24.453-13.699 38.726h-99.007v-40.967c0-4.142-3.358-7.5-7.5-7.5s-7.5 3.358-7.5 7.5v43.891c0 6.659 5.417 12.076 12.076 12.076h110.112l18.698 32.693c2.057 3.595 6.638 4.843 10.234 2.787s4.843-6.638 2.787-10.234l-24.871-43.486c-4.507-7.88-1.762-17.958 6.118-22.464l119.685-68.45c3.817-2.183 8.255-2.75 12.498-1.593 4.243 1.155 7.782 3.894 9.965 7.711l99.732 174.383c2.183 3.817 2.749 8.256 1.594 12.499-1.156 4.243-3.894 7.781-7.711 9.964l-28.171 16.111-8.946-15.642c-2.057-3.596-6.64-4.843-10.234-2.787-3.595 2.056-4.843 6.638-2.787 10.234l20.233 35.377c1.385 2.421 3.915 3.778 6.517 3.778 1.263 0 2.542-.319 3.717-.991 3.595-2.056 4.843-6.638 2.787-10.234l-3.84-6.714 28.171-16.111c7.295-4.172 12.529-10.936 14.737-19.044s1.126-16.592-3.046-23.887l-12.268-21.45 31.764 26.766c26.096 21.99 39.631 55.389 36.206 89.341l-7.984 79.139c-.157 1.555.176 3.12.952 4.477l13.221 23.117c1.385 2.421 3.915 3.778 6.517 3.778 1.263 0 2.542-.319 3.717-.991 3.595-2.059 4.842-6.641 2.785-10.237zm-182.859-83.219c.479 10.25 1.924 20.38 4.257 30.268-2.612 2.646-6.426 3.881-10.169 3.134-6.066-1.212-10.015-7.134-8.803-13.2l5.535-27.691 8.6-4.919zm-38.997 4.824c4.32 0 8.592-.913 12.595-2.68l-3.022 15.117c-.587 2.938-2.284 5.472-4.777 7.135-2.494 1.664-5.485 2.255-8.423 1.667-2.938-.587-5.472-2.284-7.135-4.777s-2.255-5.484-1.667-8.423l1.966-9.835c.705.246 1.418.477 2.146.676 2.749.749 5.542 1.12 8.317 1.12zm-81.609-68.952h-17.012v-13.498h17.012zm-7.777 182.685-12.842-5.763c-2.704-1.212-5.79-1.181-8.472.088l-19.047 9.023-21.051-9.174c-2.614-1.14-5.605-1.12-8.207.055l-20.271 9.156-21.249-9.208c-1.285-.557-2.654-.835-4.024-.835-1.48 0-2.96.325-4.33.973l-11.454 5.423v-78.559h130.947z" fill="#000000" data-original="#000000"></path><path d="m295.807 135.622c1.088-3.997-1.269-8.119-5.266-9.207-14.768-4.021-30.219-2.052-43.506 5.547-13.286 7.599-22.818 19.917-26.84 34.686-1.088 3.997 1.269 8.119 5.266 9.207.66.18 1.323.266 1.975.266 3.299 0 6.323-2.194 7.232-5.531 2.969-10.903 10.006-19.997 19.814-25.606 9.809-5.61 21.214-7.064 32.118-4.095 3.995 1.087 8.119-1.271 9.207-5.267z" fill="#000000" data-original="#000000"></path><path d="m278.715 169.842c3.994 1.086 8.118-1.269 9.208-5.265 1.089-3.996-1.269-8.119-5.265-9.208-7.04-1.917-14.402-.983-20.727 2.633-6.324 3.616-10.862 9.486-12.78 16.529-1.088 3.997 1.269 8.119 5.266 9.207.66.18 1.323.266 1.975.266 3.299 0 6.323-2.194 7.232-5.531.865-3.177 2.909-5.822 5.754-7.45 2.845-1.626 6.161-2.046 9.337-1.181z" fill="#000000" data-original="#000000"></path><path d="m275.786 197.338c1.385 2.421 3.915 3.778 6.517 3.778 1.263 0 2.542-.319 3.717-.991 3.595-2.056 4.843-6.638 2.787-10.234l-2.491-4.356c-2.057-3.596-6.639-4.844-10.234-2.787-3.595 2.056-4.843 6.638-2.787 10.234z" fill="#000000" data-original="#000000"></path></g></g></svg>