<svg enable-background="new 0 0 512 512" viewBox="0 0 512 512" xmlns="http://www.w3.org/2000/svg"><g fill="#e6351e"><path d="m210.4 246.6c33.9 0 63.2-12.2 87.2-36.1 24-24 36.1-53.3 36.1-87.2s-12.2-63.2-36.1-87.2c-24-24-53.3-36.1-87.2-36.1s-63.2 12.2-87.2 36.1-36.2 53.3-36.2 87.2 12.2 63.2 36.1 87.2c24 24 53.4 36.1 87.3 36.1zm-66-189.3c18.4-18.4 40-27.3 66-27.3s47.6 8.9 66 27.3 27.3 40 27.3 66-8.9 47.6-27.3 66-40 27.3-66 27.3-47.6-8.9-66-27.3-27.3-40-27.3-66c-.1-26 8.9-47.6 27.3-66z"/><path d="m426.1 393.7c-.7-10-2.1-20.9-4.1-32.4-2.1-11.6-4.8-22.5-8-32.5-3.3-10.3-7.8-20.6-13.4-30.3-5.8-10.2-12.6-19-20.2-26.3-8-7.6-17.7-13.7-29-18.2-11.2-4.4-23.7-6.7-37-6.7-5.2 0-10.3 2.1-20 8.5-6 3.9-13 8.4-20.9 13.5-6.7 4.3-15.8 8.3-27 11.9-10.9 3.5-22.1 5.3-33 5.3-11 0-22.1-1.8-33-5.3-11.2-3.6-20.3-7.6-27-11.9-7.8-5-14.8-9.5-20.9-13.5-9.8-6.4-14.8-8.5-20-8.5-13.3 0-25.8 2.3-37 6.7-11.3 4.5-21 10.6-29 18.2-7.6 7.3-14.4 16.1-20.2 26.3-5.6 9.8-10.1 20-13.4 30.3-3.2 10-5.9 20.9-8 32.5-2.1 11.5-3.5 22.4-4.1 32.4-.7 9.8-1 20-1 30.2 0 26.7 8.5 48.4 25.3 64.3 16.6 15.8 38.5 23.8 65.1 23.8h246.5c26.6 0 48.5-8 65.1-23.7 16.8-15.9 25.3-37.6 25.3-64.3 0-10.4-.4-20.5-1.1-30.3zm-44.9 72.8c-10.9 10.4-25.4 15.5-44.4 15.5h-246.5c-18.9 0-33.4-5.1-44.4-15.5-10.7-10.2-15.9-24.1-15.9-42.6 0-9.6.3-19.1.9-28.2.6-8.9 1.9-18.7 3.8-29.1 1.8-10.3 4.2-19.9 7-28.7 2.7-8.4 6.3-16.7 10.9-24.7 4.3-7.6 9.3-14.2 14.8-19.4 5.1-4.9 11.6-9 19.3-12 7.1-2.8 15-4.3 23.6-4.6 1.1.6 2.9 1.6 6 3.6 6.2 4 13.3 8.6 21.1 13.6 8.9 5.6 20.3 10.8 33.9 15.2 13.9 4.5 28.2 6.8 42.3 6.8s28.3-2.3 42.3-6.8c13.6-4.4 25.1-9.5 33.9-15.2 8-5.1 15-9.6 21.1-13.6 3-2 4.9-3 6-3.6 8.6.2 16.6 1.8 23.6 4.6 7.6 3 14.1 7.1 19.3 12 5.5 5.3 10.5 11.8 14.8 19.4 4.5 8 8.2 16.3 10.9 24.7 2.8 8.8 5.2 18.4 7 28.7 1.9 10.4 3.1 20.2 3.8 29.1.6 9.1 1 18.5 1 28.1-.1 18.6-5.4 32.5-16.1 42.7z"/></g></svg>