<svg enable-background="new 0 0 512 512" viewBox="0 0 512 512" xmlns="http://www.w3.org/2000/svg"><path d="m469.3 129.7c-14.8-8-32.8-7-46.7 2.4l-86.6 58.1v-46.2c0-26.5-21.5-48-48-48h-224c-26.5 0-48 21.5-48 48v224c0 26.5 21.5 48 48 48h224c26.5 0 48-21.5 48-48v-46.2l86.6 58.1c13.8 9.5 31.9 10.5 46.7 2.4 16.8-9.3 27.1-27.2 26.7-46.4v-159.8c.4-19.3-9.9-37.1-26.7-46.4zm-165.3 238.3c0 8.8-7.2 16-16 16h-224c-8.8 0-16-7.2-16-16v-224c0-8.8 7.2-16 16-16h224c8.8 0 16 7.2 16 16zm160-32.1c.4 7.4-3.4 14.4-9.8 18.2-4.3 2.5-9.7 2.2-13.8-.8l-104.4-70v-54.5l104.4-70.1c4.1-2.9 9.4-3.2 13.8-.8 6.4 3.8 10.1 10.8 9.8 18.2z" fill="#e6351e"/></svg>