<svg enable-background="new 0 0 512 512" height="512" viewBox="0 0 48 48" width="512" xmlns="http://www.w3.org/2000/svg"><g fill="#a2a7ab"><path d="m37.5 4c0-.83-.67-1.5-1.5-1.5h-31c-.83 0-1.5.67-1.5 1.5v40c0 .83.67 1.5 1.5 1.5h31c.83 0 1.5-.67 1.5-1.5s-.67-1.5-1.5-1.5h-29.5v-37h29.5c.83 0 1.5-.67 1.5-1.5z"/><path d="m10.5 9.5c-1.38 0-2.5 1.12-2.5 2.5s1.12 2.5 2.5 2.5 2.5-1.12 2.5-2.5-1.12-2.5-2.5-2.5z"/><path d="m10.5 17.5c-1.38 0-2.5 1.12-2.5 2.5s1.12 2.5 2.5 2.5 2.5-1.12 2.5-2.5-1.12-2.5-2.5-2.5z"/><path d="m10.5 25.5c-1.38 0-2.5 1.12-2.5 2.5s1.12 2.5 2.5 2.5 2.5-1.12 2.5-2.5-1.12-2.5-2.5-2.5z"/><path d="m10.5 33.5c-1.38 0-2.5 1.12-2.5 2.5s1.12 2.5 2.5 2.5 2.5-1.12 2.5-2.5-1.12-2.5-2.5-2.5z"/><path d="m31.5 10.5h-15c-.83 0-1.5.67-1.5 1.5s.67 1.5 1.5 1.5h15c.83 0 1.5-.67 1.5-1.5s-.67-1.5-1.5-1.5z"/><path d="m31.5 18.5h-15c-.83 0-1.5.67-1.5 1.5s.67 1.5 1.5 1.5h15c.83 0 1.5-.67 1.5-1.5s-.67-1.5-1.5-1.5z"/><path d="m31.5 26.5h-15c-.83 0-1.5.67-1.5 1.5s.67 1.5 1.5 1.5h15c.83 0 1.5-.67 1.5-1.5s-.67-1.5-1.5-1.5z"/><path d="m31.5 34.5h-15c-.83 0-1.5.67-1.5 1.5s.67 1.5 1.5 1.5h15c.83 0 1.5-.67 1.5-1.5s-.67-1.5-1.5-1.5z"/><path d="m41.44 40.93 3-10c.01-.02.01-.04.01-.06.01-.05.02-.1.03-.16.01-.05.01-.1.02-.15 0-.02.01-.04.01-.06v-23c-.01-.83-.68-1.5-1.51-1.5h-6c-.83 0-1.5.67-1.5 1.5v23c0 .02.01.04.01.06 0 .05.01.1.02.15s.02.1.03.16c.01.02.01.04.01.06l3 10c.18.64.77 1.07 1.43 1.07s1.25-.43 1.44-1.07zm-2.94-11.93v-20h3v20zm.52 3h1.97l-.99 3.28z"/></g></svg>